<svg width="588" height="58" fill="none" xmlns="http://www.w3.org/2000/svg">
    <path d="M407.1 57l5.7-.2h-.7c2-.2 3.9-.2 5.8 0h-.7c9.4-.1 12.3.3 20.4.2 4.4 0 6.7-.4 11.5-.3 6.2.2 11.7 0 17.5 0h-.6c4.8-.5 11.7-.8 22.9-1 1.4 0 2.9-.3 4.4-.4l9.9-.3c7.5-.4 13.4-.4 21.3-1.1l6.7-.6a48 48 0 007-1.4 6 6 0 001-.5l.4-.3.4-.4c.4-.5.7-1.1.8-1.8a3.4 3.4 0 00-.4-2.2l-.1-.3a5.2 5.2 0 00-1.4-1.2l-1.4-.7-2.2-.7a171.7 171.7 0 00-12.3-2.4c-4.2-.7-7.9-1.3-10.1-1.8l.6.1c-10.5-1.6-21.9-2.9-32.7-4-12.1-1.5-22.3-2.3-32.5-3.2-8.2-.8-13.2-1.6-22.7-2.4-8.7-.6-16-.9-27.1-1.9l-19.3-2-18.3-1.8a119 119 0 00-11.1-.7c-5.1 0-10.2-.4-15.3-1l-10.4-1c-5.5-.3-9.4-.4-14.9-.8-6.5-.4-14.9-1-21.3-1.6-9.3-.8-17.2-1.5-25.8-2l-12.4-.8-9.8-1.2c-2.6-.5-11.4-1.3-18.2-2-5.2-.5-9.7-.8-14.8-1l-8.4-.8-10.4-.6-13.2-1.2-23-1.2c-6.5-.3-11.4-.4-21.3-1.2l-13.2-.8-12.6-.6-22.6-1.4c-9.3-.9-9.2-.8-16.8-1.4L38.7 1.3c-3.6.1-11-.3-21-1L11.4 0 0 .6c9 1 12.5 1.8 23 3 9.3 1 18.4 1.9 33 2.9l9 .7 6.8.8 19 1.2c16.6 1 34.1 2.1 48 2.7 5.1.2 5.8.3 15.4 1.3 7.3.7 11.4 1.2 15.6 1.8l20.4 1.5c8.4 1 19.2 1.8 32.3 2.7 13.9.9 25.3 2 33.2 3 0 0-1.7.2.3.4 7.7.8 11.4 1.4 21.9 2.4 9.7.7 20 1.5 27 1.7 5.8.3 12.3.7 19.8 1.3 5 .4 9.1.8 13.1 1 8.4.3 18.5 1 30.7 2.2 4.4.4 9.7.9 13 1l-2.1-.2 1.5.2c5 .3 9.7.6 15.2 1.3l6.3.6 34 3 3.4.4c8.7.5 18 1.3 30.3 2.7 8.4 1 18.3 2 27.8 3.2l5.6.4-2.4-.3 1 .1.8.2c6.2.7 12 1.3 18.8 2.5a494.3 494.3 0 0112.4 2.4l1.5.5.6.3h.1l.2-.1c.1-.3.3-.5.5-.6l.4-.3c.3-.1.3 0 0-.2l-.5-.5-.3-.3c0-.2-.2-.3-.2-.3a47.4 47.4 0 01-6.3 1.3c-6.4.8-9.7 1.3-17.3 1.6-5.1-.2-10.2 0-15.2.3-8.5.4-9.5 0-13.5.1a1889.6 1889.6 0 01-42.1 1h-21.7c-5 0-9.9-.2-12-.3-4.1-.4-12.6-.4-20.4-.4-5.4 0-9.2-.1-13.3-.3l-17.5-.4c-15-.2-29.8-.2-44.8-.6l-14.2-.1h-10.4a191 191 0 00-19.4-.7l-9-.2h-4.7c-3.6-.1-4.3-.4-10.5-.5H239c-7.5.2-17 0-28.4-.4-13-.5-25.9-.9-37.2-1-8.8 0-18.5-.6-27.7-.9-5.7-.6-18.3-1-25.9-1.7a421 421 0 01-30.9-1.4c-3.8-.3-8.6-.8-12.3-.8-4.3 0-11.8-.8-14.8-.9-5.4 0-15-.7-24.3-1.8l-3.7-.7-3.2-.8a28.3 28.3 0 01-3.6-1.2l-.2.3c0 .2-.2.4-.4.5-.1.3-.3.6-.6.8-.4.4-.6.2-.3.3l.5.4.3.4.4.5.4.5 1.8-.6c3-.7 6.4-1.4 10.9-2.1l6.7-1c8.8-1 16-1.5 23.7-2.2 8.1-.7 16-1.3 23-1.7l3.7-.3c2.7-.3 5.8-.6 8.8-.7l6.2-.3c14.3-.8 30.4-2.1 44.2-2.6 13.8-1 29-1.6 42.9-2.6l13-.7 5.5-.3c11.1 0 24.7-.7 40-1.5l9.4-.4a92 92 0 0010.2-.8l2.6-.3c9.9-.4 9.7-.4 19.4-1l24-1.3c10-.3 18.3-.3 29.7-.7 23.4-.9 44-1.2 65.4-1.5 5.7.1 14-.1 21.8-.3l14.3-.4 26-.5a134 134 0 0116.3.3c7.5-.1 15.3-.2 22.5-.1 4.3-.2 8.8-.4 14-.4 5.1 0 11.2 0 18.1.7h-.6l3 .3a12 12 0 011.6.4l.3-.4.4-.7c.2-.3.4-.5.7-.6l-.6-.3-.2-.2a3 3 0 01-.3-.3l-.2-.3-.2-.2v-.1a527.3 527.3 0 01-70 10.2c-12.3 1-12.7 1-27.2 2.8l-3.8.4-14.6 1.2-6.6.6c-9 1-21 1.8-30.2 2.6a699.6 699.6 0 01-35.1 2.2 209.8 209.8 0 01-18.2 1c-1.7-.3-10.6 0-17 .1-6.1.2-12.3.4-19 .4-5.4 0-10.6.3-14.2.5-5 .3-7.8 0-13.4 0-5 .4-14.8.5-25.4.4-6.2 0-12.7-.2-19-.4l-25-.5a726 726 0 01-26.6-.6l-24.4-1.7-28.8-2A995.7 995.7 0 0181 26.3c-3.9-.7-9.8-1.3-16.6-2.1l-16.1-2-10-1.2c-2.8-.4-4-.4-11-1.7-3.2-.7-6.7-1.4-10.2-2.5l-2.5-.9-1-.5h-.1s0-.1 0 0l-.6.6a3 3 0 01-.8.8H12a.3.3 0 01.2 0l.4.4.3.5.5.9.3-.2A20 20 0 0118 18a351.9 351.9 0 0135-1c11.6 0 22.2.3 32.8.7 7.3.2 14 .4 19.9.3a1103.4 1103.4 0 0025.7.8l9 .4 11 .5 11.7.1c7.8.4 14.6.8 21.9 1 7.3.2 13 0 20.3.3 9.2.3 11.1 0 20 .3 5.6.5 12.7 1 22.5 1.5 11.6.6 19.9.6 29.8 1 3 .3 5.4.6 8.6.7 12.5.7 25.3 1.4 37.7 1.7 5.5.1 12 .3 18.6.7 12.3.7 25.6 1.2 36.2 2l20.6.6c11.7.7 21.2 1.5 33.5 1.9l6.1.4c14.6 1 28.2 1.5 38.6 1.6 5.1 0 11.3.3 18.2.6l16.5 1 10 .9 6.3.4 23.4 1.2 11.6.5 13.2.8 7-.3c-5-.6 1.4-.5 4.1-.6-4.9-.5-10.4-1-17.5-1.5l-5-.2-14.9-.4c-5.6-.4-10.7-.8-15.3-1l-17.8-1.1c-11.5-.7-20.9-1.5-33.4-2.2-2 0-3.5-.3-5.4-.4l5-.2-7.4-.7c-8.3-.6-16.4-1.4-27.7-2-18.2-1-36.5-2-55-2.7l-18.1-.5c-14.1-.9-14.1-.9-26-1.2-9.6-1.4-10.4-1.5-31.3-2.9l-20-.4c-7.4 0-17.6-.7-25-.8h-14.5c-3.8 0-7.5 0-14-.3-3 0-5.9-.3-8.7-.8l-4-.6a982 982 0 01-21.9-1l-19.2-1-16.8-.6-19.2-.7-16.3-.6c-7.3-.2-11-.6-17.4-.7l-.9.1-.5.2c-23-.8-23-.8-37.6-.5h-2c-18-.5-18-.6-38.5-.6l-12.8-.2a152.9 152.9 0 00-16.4.7c-.8.2-1.6.6-2.3 1.1l-.5.5a3.8 3.8 0 00-.7 1.8v.7a3.5 3.5 0 001.2 2.2l.6.4c1 .6 2 1 3 1.4a48 48 0 007.4 2 285 285 0 0023.8 4.5l3.7.5c6.3.5 18.2 1.9 26.6 2.6l6.9.7c13.5 1.5 27 2.9 40 4l13.7.8c12.3 1 22.8 2 35.2 2.5 3.2 0-.8-.5 8 0 7.3.6 14.5 1.2 22.5 1.7l14.7.8h20.7c10 .4 19.4.7 29.2.7 11.5.3 20 0 28-.3 7.4 0 13.1.2 19 0 7 0 14.3-.3 22.7-.6 16.3 0 36-.8 56.1-1.8l13.9-.7c6.6-.4 5.8 0 11-.3 4.5-.6 9-.8 12.8-1l14.4-1.6c14.7-1.4 26.4-2.9 41.5-4.6 9.4-1.1 18.6-2.4 28-3.7l7.8-.8a265 265 0 0032.2-6 25.5 25.5 0 004.8-1.8 5.4 5.4 0 001-1.1l.2-.2.2-.3.2-.7.1-1a3.6 3.6 0 00-1.2-2.4l-.3-.3-.1-.2-.5-.2a25.3 25.3 0 00-4.9-1.3l-3.3-.5-7.1-.5c-7.5-.4-3.7-.6-9.5-.9l-4.9-.2-13.6.2c-13.4-.5-29.1-.1-43 0-7-.4-13.9-.4-20.8-.1l-11.8.3h-5.7.7l-7 .1-38.3 1c-11.8.2-23.8.7-33.8 1.4-7.6.6-18.2 1-28 1.6-5.4.3-5.8 0-10 .3l-22.4 1.4 3.8.2-12.8.7-11.7.7c-17 .2-23.6.4-40.2 1.2-10.2.6-17.2.8-24.4 1l-6.4.2-17.5 1.2-24 1c-5.3.2-9.2.5-13 .9 2.1 0 10.3-.6 8.9-.2-7.7.6-15 1-20.8 1.1-2 0-3.7 0-7.3.3-7.6.6-11 .5-16.5 1-6.5.5-6 .8-13.9 1.3-8.2 0-8.1 0-27 1.3l-13.9 1.2c-7 .6-14 1.4-20.7 2.4a85.7 85.7 0 00-12.5 3l-.9.4-.6.4a6.7 6.7 0 00-1.1 1.2l-.5 1a4.4 4.4 0 00-.1 2.5c.3 1 .9 1.9 1.7 2.5a8 8 0 001.9 1l1.3.4 2.4.5a161.3 161.3 0 0024.3 2.6c3.3 0 10.1.6 15.7 1 8 .8 16.4 1.4 25.6 1.9 9.1.5 13.7 1 21 1.5h6.2c10.5.3 13.4.4 26.4 1l4 .2 17.2.4c9.5 0 18.8.3 29 .8l11 .5c7.6 0 14.5 0 24.5.4l7 .2c11.8.3 23.2.5 26.8 1l19.4 1.1 7.5.1 24-.1h25.1l4 .2c6.9.5 13.8.6 20.8.4 10 .1 19.5-.1 30 .1h9.7-.6zm-304.8-8a66.6 66.6 0 013.3.4l-9.3-.3c-3.3-.5 2.3-.2 6 0zm207-23.3l.7.1-2.2-.1h-.4 2zM36.6 31.2h-.6l2-.2h.4l-1.8.2z"
          fill="#2563eb"/>
    <path d="M513.5 39.7h1l-1.6-.1h.6zM412.1 57h-5 5zM417.8 57h-5.7.8v-.2h-.8 5.8-.7v.2h.6zM466 56.7h2.1-2.1zM433.8 9.6h1.9-2.5.6zM550.5 16.7l2.1.3-1.4-.2h-.7z"
          fill="#2563eb"/>
</svg>
