<svg xmlns="http://www.w3.org/2000/svg" width="200" height="200" fill="none" xmlns:v="https://vecta.io/nano"><g clip-path="url(#E)"><path fill="url(#A)" d="M0 0h579v783H0z"/><path d="M-199.708-115.36c-69.784 95.859-360.365 61.391-549.26 8.638-28.979-8.092-67.535 4.296-53.466 30.891 41.714 78.851 305.985 183.28 144.9 483.203-22.496 41.885-2.467 96.511 44.779 101.821 234.019 26.305 388.494-70.51 454.01-142.241 12.001-13.139 26.015-24.462 42.552-31.032l287.211-114.113c57.712-22.93 93.628-80.918 88.446-142.802l-13.018-155.45c-3.137-37.465-32.554-67.361-69.964-71.103l-290.997-29.109c-35.996-3.601-63.903 32.051-85.193 61.298z" fill="url(#B)"/><path d="M-18.972-146.191c-39.233 34.322-120.196 13.793-189.988-20.893-40.103-19.931-78.272-4.88-57.301 34.69 35.867 67.674 101.527 170.915 27.821 360.901-12.773 32.925-1.784 72.761 32.299 82.011 93.341 25.332 160.776-28.464 195.094-77.026 11.387-16.114 25.033-30.888 42.498-40.068l93.153-48.965C170.966 120.089 200 72.028 200 19.651V-99.391c0-33.894-21.888-63.908-54.16-74.267l-65.884-21.149c-36.509-11.719-70.069 23.37-98.928 48.616z" fill="url(#C)"/><path d="M-17.004-114.321c-19.861 3.328-45.209-1.946-70.457-11.519-41.898-15.888-69.952-3.549-50.004 36.575 19.747 39.72 38.942 95.775 11.364 182.16-10.734 33.625.129 75.114 35.336 77.631 42.778 3.057 75.246-20.084 95.255-44.246 12.584-15.197 26.043-30.223 43.504-39.41l22.292-11.728c46.338-24.378 75.351-72.426 75.351-124.784v-26.696a74.98 74.98 0 0 0-52.042-71.382C58.5-158.996 19.352-120.413-17.004-114.321z" fill="url(#D)"/><g clip-path="url(#F)"><path d="M102.943 110.72l-26.45 26.45a9.66 9.66 0 0 1-3.138 2.195c-1.182.515-2.455.789-3.744.804s-2.568-.226-3.763-.712a9.69 9.69 0 0 1-3.191-2.118 9.67 9.67 0 0 1-2.118-3.191c-.486-1.194-.728-2.473-.713-3.763s.289-2.562.804-3.744 1.261-2.249 2.195-3.138l26.45-26.45 13.666 13.667zM117 83a9.89 9.89 0 0 0-13.667 0L94 92.333 107.667 106 117 96.667c1.812-1.813 2.829-4.27 2.829-6.833S118.812 84.813 117 83zm-40.79-5.85l5.167 1.473 1.473 5.167a3.97 3.97 0 0 0 3.817 2.877 3.97 3.97 0 0 0 3.817-2.877l1.473-5.167 5.167-1.473a3.97 3.97 0 0 0 2.878-3.817 3.97 3.97 0 0 0-2.878-3.817l-5.167-1.473-1.473-5.167a3.97 3.97 0 0 0-3.817-2.877 3.97 3.97 0 0 0-3.817 2.877l-1.473 5.167-5.167 1.473a3.97 3.97 0 0 0-2.877 3.817 3.97 3.97 0 0 0 2.877 3.817zm40 40l5.167 1.473 1.473 5.167c.237.829.738 1.558 1.427 2.077a3.96 3.96 0 0 0 2.39.8c.862 0 1.701-.28 2.39-.8a3.97 3.97 0 0 0 1.426-2.077l1.474-5.167 5.166-1.473c.829-.237 1.559-.738 2.078-1.427a3.97 3.97 0 0 0 .8-2.39c0-.862-.281-1.701-.8-2.39a3.97 3.97 0 0 0-2.078-1.426l-5.166-1.474-1.474-5.166a3.97 3.97 0 0 0-1.426-2.078c-.689-.519-1.528-.8-2.39-.8a3.97 3.97 0 0 0-2.39.8c-.689.519-1.19 1.249-1.427 2.078l-1.473 5.166-5.167 1.474a3.97 3.97 0 0 0-2.077 1.426c-.52.689-.8 1.528-.8 2.39a3.96 3.96 0 0 0 .8 2.39c.519.689 1.248 1.19 2.077 1.427zM119.187 75l4.516 1.29L125 80.813c.211.721.65 1.353 1.251 1.804a3.47 3.47 0 0 0 2.082.694c.751 0 1.482-.243 2.083-.694s1.04-1.083 1.251-1.804l1.29-4.517L137.48 75c.721-.211 1.353-.65 1.804-1.251s.693-1.332.693-2.082-.243-1.481-.693-2.082-1.083-1.04-1.804-1.251l-4.517-1.29-1.296-4.523c-.211-.721-.65-1.353-1.251-1.804s-1.332-.694-2.083-.694a3.47 3.47 0 0 0-2.082.694c-.601.45-1.04 1.083-1.251 1.804l-1.29 4.517-4.523 1.297a3.47 3.47 0 0 0-1.804 1.251c-.45.601-.693 1.332-.693 2.082s.243 1.482.693 2.082A3.47 3.47 0 0 0 119.187 75z" fill="#fff"/></g></g><defs><linearGradient id="A" x1="546.205" y1="727.181" x2="-110.316" y2="241.707" href="#G"><stop stop-color="#6139ff"/><stop offset="1" stop-color="#735cf5"/></linearGradient><linearGradient id="B" x1="202.016" y1="-160.38" x2="55.426" y2="562.826" href="#G"><stop stop-color="#fff" stop-opacity=".13"/><stop offset="1" stop-color="#d9d9d9" stop-opacity="0"/></linearGradient><linearGradient id="C" x1="182.735" y1="-174.307" x2="-65.314" y2="317.179" href="#G"><stop stop-color="#fff" stop-opacity=".13"/><stop offset="1" stop-color="#d9d9d9" stop-opacity="0"/></linearGradient><linearGradient id="D" x1="134.637" y1="-142.5" x2="-23.624" y2="170.798" href="#G"><stop stop-color="#fff" stop-opacity=".13"/><stop offset="1" stop-color="#d9d9d9" stop-opacity="0"/></linearGradient><clipPath id="E"><rect width="200" height="200" rx="100" fill="#fff"/></clipPath><clipPath id="F"><path fill="#fff" transform="translate(60 60)" d="M0 0h80v80H0z"/></clipPath><linearGradient id="G" gradientUnits="userSpaceOnUse"/></defs></svg>