<svg xmlns="http://www.w3.org/2000/svg" width="200" height="200" fill="none" xmlns:v="https://vecta.io/nano"><g clip-path="url(#E)"><path fill="url(#A)" d="M0 0h579v783H0z"/><path d="M-199.708-115.36c-69.784 95.859-360.365 61.391-549.26 8.638-28.979-8.092-67.535 4.296-53.466 30.891 41.714 78.851 305.985 183.28 144.9 483.203-22.496 41.885-2.467 96.511 44.779 101.821 234.019 26.305 388.494-70.51 454.01-142.241 12.001-13.139 26.015-24.462 42.552-31.032l287.211-114.113c57.712-22.93 93.628-80.918 88.446-142.802l-13.018-155.45c-3.137-37.465-32.554-67.361-69.964-71.103l-290.997-29.109c-35.996-3.601-63.903 32.051-85.193 61.298z" fill="url(#B)"/><path d="M-18.972-146.191c-39.233 34.322-120.196 13.793-189.988-20.893-40.103-19.931-78.272-4.88-57.301 34.69 35.867 67.674 101.527 170.915 27.821 360.901-12.773 32.925-1.784 72.761 32.299 82.011 93.341 25.332 160.776-28.464 195.094-77.026 11.387-16.114 25.033-30.888 42.498-40.068l93.153-48.965C170.966 120.089 200 72.028 200 19.651V-99.391c0-33.894-21.888-63.908-54.16-74.267l-65.884-21.149c-36.509-11.719-70.069 23.37-98.928 48.616z" fill="url(#C)"/><path d="M-17.004-114.321c-19.861 3.328-45.209-1.946-70.457-11.519-41.898-15.888-69.952-3.549-50.004 36.575 19.747 39.72 38.942 95.775 11.364 182.16-10.734 33.625.129 75.114 35.336 77.631 42.778 3.057 75.246-20.084 95.255-44.246 12.584-15.197 26.043-30.223 43.504-39.41l22.292-11.728c46.338-24.378 75.351-72.426 75.351-124.784v-26.696a74.98 74.98 0 0 0-52.042-71.382C58.5-158.996 19.352-120.413-17.004-114.321z" fill="url(#D)"/><path d="M130.029 104.671c-2.571 0-5.04 1.002-6.885 2.793l-3.923-1.961c3.202-10.503-2.716-21.612-13.218-24.814a19.88 19.88 0 0 0-11.778.056l-2.3-4.152c3.691-4.042 3.407-10.31-.635-14.001s-10.31-3.407-14.001.635-3.407 10.31.635 14.001a9.91 9.91 0 0 0 6.711 2.592 10.03 10.03 0 0 0 1.422-.142l2.279 4.118a19.79 19.79 0 0 0-4.364 27.316l-9.655 9.277c-5.122-2.294-11.134-.001-13.428 5.121s-.001 11.134 5.121 13.428 11.134.001 13.428-5.121c1.278-2.854 1.171-6.137-.29-8.902l9.463-9.095c8.842 6.404 21.202 4.433 27.614-4.404l3.976 1.988a9.57 9.57 0 0 0-.113 1.206c0 5.49 4.45 9.941 9.94 9.941a9.94 9.94 0 0 0 0-19.88z" fill="#fff"/></g><defs><linearGradient id="A" x1="546.205" y1="727.181" x2="-110.316" y2="241.707" href="#F"><stop stop-color="#6139ff"/><stop offset="1" stop-color="#735cf5"/></linearGradient><linearGradient id="B" x1="202.016" y1="-160.38" x2="55.426" y2="562.826" href="#F"><stop stop-color="#fff" stop-opacity=".13"/><stop offset="1" stop-color="#d9d9d9" stop-opacity="0"/></linearGradient><linearGradient id="C" x1="182.735" y1="-174.307" x2="-65.314" y2="317.179" href="#F"><stop stop-color="#fff" stop-opacity=".13"/><stop offset="1" stop-color="#d9d9d9" stop-opacity="0"/></linearGradient><linearGradient id="D" x1="134.637" y1="-142.5" x2="-23.624" y2="170.798" href="#F"><stop stop-color="#fff" stop-opacity=".13"/><stop offset="1" stop-color="#d9d9d9" stop-opacity="0"/></linearGradient><clipPath id="E"><rect width="200" height="200" rx="100" fill="#fff"/></clipPath><linearGradient id="F" gradientUnits="userSpaceOnUse"/></defs></svg>