<svg xmlns="http://www.w3.org/2000/svg" width="654" height="616" fill="none" xmlns:v="https://vecta.io/nano"><style><![CDATA[.B{fill:#979699}.C{color-interpolation-filters:sRGB}.D{flood-opacity:0}.E{fill:#3f3f3f}.F{stroke-linecap:round}.G{stroke-opacity:.11}]]></style><rect x="174" width="480" height="604" rx="70" fill="#f5f8fa" fill-opacity=".8"/><g filter="url(#A)"><rect x="103" y="430" width="319" height="83" rx="15" fill="#fff"/><path d="M202.149 478.171c-.798 0-1.514-.133-2.147-.399-.633-.279-1.134-.659-1.501-1.14-.367-.494-.57-1.058-.608-1.691h1.786a1.76 1.76 0 0 0 .722 1.273c.443.329 1.02.494 1.729.494.659 0 1.178-.146 1.558-.437s.57-.659.57-1.102c0-.456-.203-.792-.608-1.007-.405-.228-1.032-.45-1.881-.665-.773-.203-1.406-.405-1.9-.608-.481-.215-.899-.526-1.254-.931-.342-.418-.513-.963-.513-1.634a2.46 2.46 0 0 1 .475-1.463c.317-.443.766-.792 1.349-1.045.583-.266 1.248-.399 1.995-.399 1.153 0 2.084.291 2.793.874s1.089 1.381 1.14 2.394h-1.729c-.038-.545-.26-.982-.665-1.311-.393-.329-.925-.494-1.596-.494-.621 0-1.115.133-1.482.399s-.551.614-.551 1.045c0 .342.108.627.323.855.228.215.507.393.836.532a18.32 18.32 0 0 0 1.406.437c.747.203 1.355.405 1.824.608.469.19.868.481 1.197.874.342.393.519.906.532 1.539 0 .57-.158 1.083-.475 1.539s-.766.817-1.349 1.083c-.57.253-1.229.38-1.976.38zm11.409-10.773c.785 0 1.494.171 2.128.513.633.329 1.127.83 1.482 1.501.367.671.551 1.488.551 2.451V478h-1.71v-5.89c0-1.039-.26-1.83-.779-2.375-.52-.557-1.229-.836-2.128-.836-.912 0-1.641.285-2.185.855-.532.57-.798 1.4-.798 2.489V478h-1.729v-14.06h1.729v5.13c.342-.532.81-.944 1.406-1.235.608-.291 1.285-.437 2.033-.437zm11.526 10.773c-.975 0-1.862-.222-2.66-.665a4.83 4.83 0 0 1-1.862-1.881c-.443-.823-.665-1.773-.665-2.85 0-1.064.228-2.001.684-2.812.469-.823 1.102-1.45 1.9-1.881.798-.443 1.691-.665 2.679-.665s1.881.222 2.679.665c.798.431 1.425 1.051 1.881 1.862.469.811.703 1.754.703 2.831s-.241 2.027-.722 2.85c-.469.811-1.108 1.438-1.919 1.881s-1.71.665-2.698.665zm0-1.52c.621 0 1.203-.146 1.748-.437s.982-.728 1.311-1.311c.342-.583.513-1.292.513-2.128s-.165-1.545-.494-2.128-.76-1.013-1.292-1.292c-.532-.291-1.108-.437-1.729-.437-.633 0-1.216.146-1.748.437-.519.279-.937.709-1.254 1.292s-.475 1.292-.475 2.128c0 .849.152 1.564.456 2.147.317.583.735 1.02 1.254 1.311.519.279 1.089.418 1.71.418zm9.341-7.372c.304-.595.735-1.058 1.292-1.387.57-.329 1.261-.494 2.071-.494v1.786h-.456c-1.938 0-2.907 1.051-2.907 3.154V478h-1.729v-10.412h1.729v1.691zm7.468-.266v6.137c0 .507.108.868.323 1.083.216.203.589.304 1.121.304h1.273V478h-1.558c-.962 0-1.684-.222-2.166-.665s-.722-1.172-.722-2.185v-6.137h-1.349v-1.425h1.349v-2.622h1.729v2.622h2.717v1.425h-2.717zm9.885-1.615c1.267 0 2.293.386 3.078 1.159.786.76 1.178 1.862 1.178 3.306V478h-1.71v-5.89c0-1.039-.259-1.83-.779-2.375-.519-.557-1.228-.836-2.128-.836-.912 0-1.64.285-2.185.855-.532.57-.798 1.4-.798 2.489V478h-1.729v-10.412h1.729v1.482a3.45 3.45 0 0 1 1.387-1.235c.596-.291 1.248-.437 1.957-.437zm7.632 10.716c-.33 0-.608-.114-.836-.342s-.342-.507-.342-.836.114-.608.342-.836.506-.342.836-.342c.316 0 .582.114.798.342.228.228.342.507.342.836s-.114.608-.342.836c-.216.228-.482.342-.798.342zm7.675-9.101H264.9V478h-1.729v-8.987h-1.349v-1.425h1.349v-.741c0-1.165.297-2.014.893-2.546.608-.545 1.577-.817 2.907-.817v1.444c-.76 0-1.299.152-1.615.456-.304.291-.456.779-.456 1.463v.741h2.185v1.425zm11.25-1.425V478h-1.729v-1.539c-.33.532-.792.95-1.387 1.254-.583.291-1.229.437-1.938.437-.811 0-1.539-.165-2.185-.494-.646-.342-1.159-.849-1.539-1.52-.368-.671-.551-1.488-.551-2.451v-6.099h1.71v5.871c0 1.026.259 1.818.779 2.375.519.545 1.228.817 2.128.817.924 0 1.653-.285 2.185-.855s.798-1.4.798-2.489v-5.719h1.729zm7.992-.19c1.267 0 2.293.386 3.078 1.159.785.76 1.178 1.862 1.178 3.306V478h-1.71v-5.89c0-1.039-.26-1.83-.779-2.375-.519-.557-1.229-.836-2.128-.836-.912 0-1.64.285-2.185.855-.532.57-.798 1.4-.798 2.489V478h-1.729v-10.412h1.729v1.482c.342-.532.804-.944 1.387-1.235.595-.291 1.248-.437 1.957-.437zm13.54-7.296l-5.206 21.128h-1.71l5.187-21.128h1.729zm11.544 7.486l-6.27 15.314h-1.786l2.052-5.016-4.199-10.298h1.919l3.268 8.436 3.23-8.436h1.786zm6.28 10.583c-.976 0-1.862-.222-2.66-.665-.786-.443-1.406-1.07-1.862-1.881-.444-.823-.665-1.773-.665-2.85 0-1.064.228-2.001.684-2.812a4.76 4.76 0 0 1 1.9-1.881c.798-.443 1.691-.665 2.679-.665s1.881.222 2.679.665c.798.431 1.425 1.051 1.881 1.862.468.811.703 1.754.703 2.831s-.241 2.027-.722 2.85c-.469.811-1.109 1.438-1.919 1.881s-1.71.665-2.698.665zm0-1.52c.62 0 1.203-.146 1.748-.437s.981-.728 1.311-1.311c.342-.583.513-1.292.513-2.128s-.165-1.545-.494-2.128-.76-1.013-1.292-1.292c-.532-.291-1.109-.437-1.729-.437a3.58 3.58 0 0 0-1.748.437c-.52.279-.938.709-1.254 1.292s-.475 1.292-.475 2.128c0 .849.152 1.564.456 2.147.316.583.734 1.02 1.254 1.311.519.279 1.089.418 1.71.418zm16.846-9.063V478h-1.729v-1.539c-.329.532-.792.95-1.387 1.254-.583.291-1.229.437-1.938.437-.811 0-1.539-.165-2.185-.494-.646-.342-1.159-.849-1.539-1.52-.367-.671-.551-1.488-.551-2.451v-6.099h1.71v5.871c0 1.026.26 1.818.779 2.375.519.545 1.229.817 2.128.817.925 0 1.653-.285 2.185-.855s.798-1.4.798-2.489v-5.719h1.729zm4.648 1.691c.304-.595.735-1.058 1.292-1.387.57-.329 1.26-.494 2.071-.494v1.786h-.456c-1.938 0-2.907 1.051-2.907 3.154V478h-1.729v-10.412h1.729v1.691zm7.088.247c.355-.621.874-1.127 1.558-1.52s1.463-.589 2.337-.589c.937 0 1.78.222 2.527.665s1.336 1.07 1.767 1.881c.431.798.646 1.729.646 2.793 0 1.051-.215 1.989-.646 2.812s-1.026 1.463-1.786 1.919c-.747.456-1.583.684-2.508.684-.899 0-1.691-.196-2.375-.589-.671-.393-1.178-.893-1.52-1.501V478h-1.729v-14.06h1.729v5.586zm7.068 3.23c0-.785-.158-1.469-.475-2.052s-.747-1.026-1.292-1.33c-.532-.304-1.121-.456-1.767-.456-.633 0-1.222.158-1.767.475-.532.304-.963.754-1.292 1.349-.317.583-.475 1.26-.475 2.033 0 .785.158 1.476.475 2.071.329.583.76 1.032 1.292 1.349a3.57 3.57 0 0 0 1.767.456c.646 0 1.235-.152 1.767-.456a3.4 3.4 0 0 0 1.292-1.349c.317-.595.475-1.292.475-2.09zm5.772-3.477c.304-.595.735-1.058 1.292-1.387.57-.329 1.26-.494 2.071-.494v1.786h-.456c-1.938 0-2.907 1.051-2.907 3.154V478h-1.729v-10.412h1.729v1.691zm4.713 3.477c0-1.064.215-1.995.646-2.793.43-.811 1.019-1.438 1.767-1.881.76-.443 1.602-.665 2.527-.665.912 0 1.703.196 2.375.589s1.171.887 1.501 1.482v-1.9h1.748V478h-1.748v-1.938c-.342.608-.855 1.115-1.539 1.52-.672.393-1.457.589-2.356.589-.925 0-1.761-.228-2.508-.684s-1.337-1.096-1.767-1.919-.646-1.761-.646-2.812zm8.816.019c0-.785-.159-1.469-.475-2.052s-.748-1.026-1.292-1.33c-.532-.317-1.121-.475-1.767-.475s-1.235.152-1.767.456-.957.747-1.273 1.33-.475 1.267-.475 2.052c0 .798.158 1.495.475 2.09.316.583.741 1.032 1.273 1.349.532.304 1.121.456 1.767.456s1.235-.152 1.767-.456c.544-.317.975-.766 1.292-1.349.316-.595.475-1.286.475-2.071zm9.743-5.377c1.266 0 2.292.386 3.078 1.159.785.76 1.178 1.862 1.178 3.306V478h-1.71v-5.89c0-1.039-.26-1.83-.779-2.375-.52-.557-1.229-.836-2.128-.836-.912 0-1.641.285-2.185.855-.532.57-.798 1.4-.798 2.489V478h-1.729v-10.412h1.729v1.482c.342-.532.804-.944 1.387-1.235.595-.291 1.247-.437 1.957-.437zm6.434 5.358c0-1.064.215-1.995.646-2.793.431-.811 1.02-1.438 1.767-1.881.76-.443 1.609-.665 2.546-.665.811 0 1.564.19 2.261.57.697.367 1.229.855 1.596 1.463v-5.51h1.748V478h-1.748v-1.957c-.342.621-.849 1.134-1.52 1.539-.671.393-1.457.589-2.356.589-.925 0-1.767-.228-2.527-.684-.747-.456-1.336-1.096-1.767-1.919s-.646-1.761-.646-2.812zm8.816.019c0-.785-.158-1.469-.475-2.052s-.747-1.026-1.292-1.33c-.532-.317-1.121-.475-1.767-.475s-1.235.152-1.767.456-.956.747-1.273 1.33-.475 1.267-.475 2.052c0 .798.158 1.495.475 2.09.317.583.741 1.032 1.273 1.349.532.304 1.121.456 1.767.456s1.235-.152 1.767-.456a3.4 3.4 0 0 0 1.292-1.349c.317-.595.475-1.286.475-2.071z" class="E"/><path d="M197 479.9h95.097v.95H197v-.95zm98.942 0h7.303v.95h-7.303v-.95zm11.375 0h93.529v.95h-93.529v-.95z" class="E"/><rect x="112" y="437" width="70" height="70" rx="15" fill="#fafafa"/><path d="M161.066 466.552c2.72 3.925 2.162 9.211-1.246 11.785l-4.753 3.589c-3.408 2.573-8.394 1.474-11.114-2.451s-2.162-9.211 1.245-11.784c.525-.396 1.29-.229 1.71.377s.333 1.417-.192 1.813c-2.359 1.781-2.745 5.442-.862 8.158s5.336 3.479 7.694 1.697l4.754-3.589c2.359-1.782 2.746-5.442.862-8.159-1.023-1.476-2.551-2.433-4.192-2.627-.672-.079-1.207-.726-1.196-1.445s.565-1.235 1.236-1.159c2.369.28 4.576 1.663 6.054 3.795zm-22.038 10.757c-1.64-.193-3.169-1.151-4.192-2.627-1.884-2.717-1.497-6.377.862-8.159l4.754-3.589c2.358-1.782 5.811-1.02 7.694 1.697s1.497 6.377-.862 8.158c-.525.396-.612 1.207-.192 1.813s1.185.773 1.71.377c3.407-2.573 3.966-7.86 1.245-11.784s-7.706-5.025-11.114-2.451l-4.753 3.589c-3.408 2.573-3.966 7.86-1.246 11.785 1.478 2.131 3.684 3.514 6.054 3.795.294.033.565-.045.778-.206.274-.207.452-.548.458-.951.011-.719-.525-1.367-1.196-1.446v-.001z" fill="#676767"/></g><g filter="url(#B)"><g clip-path="url(#G)"><path stroke="#bebebe" stroke-width=".5" d="M289.25 210v116"/><g filter="url(#C)"><circle cx="289" cy="196" r="8" fill="#3e00c2"/><circle cx="289" cy="196" r="5.5" stroke="#fff" stroke-width="5"/></g><rect width="778.015" height="348.551" rx="12" transform="matrix(1 0 0 -1 25 394.551)" fill="#fff"/><path d="M69.451 103.191c-1.699 0-3.259-.399-4.68-1.196a8.96 8.96 0 0 1-3.38-3.303c-.832-1.421-1.248-3.025-1.248-4.81 0-1.768.416-3.354 1.248-4.758a8.9 8.9 0 0 1 3.38-3.328c1.421-.797 2.981-1.196 4.68-1.196 1.716 0 3.276.399 4.68 1.196 1.421.797 2.539 1.907 3.354 3.328.832 1.404 1.248 2.99 1.248 4.758 0 1.785-.416 3.389-1.248 4.81a8.77 8.77 0 0 1-3.354 3.303c-1.421.797-2.981 1.196-4.68 1.196zm0-3.251c1.092 0 2.054-.243 2.886-.728.832-.503 1.482-1.213 1.95-2.132s.702-1.985.702-3.198-.234-2.271-.702-3.172c-.468-.919-1.118-1.621-1.95-2.106s-1.794-.728-2.886-.728-2.063.243-2.912.728c-.832.485-1.482 1.187-1.95 2.106-.468.901-.702 1.959-.702 3.172s.234 2.279.702 3.198 1.118 1.629 1.95 2.132c.849.485 1.82.728 2.912.728zm17.996-.286l3.64-11.05h3.874l-5.33 14.404h-4.42l-5.304-14.404h3.9l3.64 11.05zm22.948-4.16c0 .52-.034.988-.104 1.404h-10.53c.087 1.04.451 1.855 1.092 2.444s1.43.885 2.366.885c1.352 0 2.314-.581 2.886-1.743h3.926c-.416 1.387-1.213 2.531-2.392 3.433-1.178.884-2.626 1.326-4.342 1.326-1.386 0-2.634-.304-3.744-.91a6.7 6.7 0 0 1-2.574-2.626c-.607-1.127-.91-2.427-.91-3.9 0-1.491.303-2.799.91-3.926s1.456-1.993 2.548-2.6 2.349-.91 3.77-.91c1.37 0 2.592.295 3.666.884 1.092.589 1.933 1.43 2.522 2.522.607 1.075.91 2.314.91 3.718zm-3.77-1.04c-.017-.936-.355-1.681-1.014-2.236-.658-.572-1.464-.858-2.418-.858-.901 0-1.664.277-2.288.832-.606.537-.979 1.291-1.118 2.262h6.838zm10.067-3.614c.468-.763 1.075-1.361 1.82-1.794.763-.433 1.629-.65 2.6-.65v3.822h-.962c-1.144 0-2.011.269-2.6.806-.572.537-.858 1.473-.858 2.808v7.177h-3.64V88.605h3.64v2.236zm12.878 8.814l3.64-11.05h3.874l-5.33 14.404h-4.42l-5.304-14.404h3.9l3.64 11.05zm11.404-12.766c-.641 0-1.178-.199-1.612-.598-.416-.416-.624-.927-.624-1.534s.208-1.109.624-1.508c.434-.416.971-.624 1.612-.624s1.17.208 1.586.624c.434.399.65.901.65 1.508a2.04 2.04 0 0 1-.65 1.534c-.416.399-.944.598-1.586.598zm1.794 1.716v14.404h-3.64V88.605h3.64zm16.987 6.89c0 .52-.035.988-.104 1.404h-10.53c.086 1.04.45 1.855 1.092 2.444s1.43.885 2.366.885c1.352 0 2.314-.581 2.886-1.743h3.926c-.416 1.387-1.214 2.531-2.392 3.433-1.179.884-2.626 1.326-4.342 1.326-1.387 0-2.635-.304-3.744-.91a6.7 6.7 0 0 1-2.574-2.626c-.607-1.127-.91-2.427-.91-3.9 0-1.491.303-2.799.91-3.926s1.456-1.993 2.548-2.6 2.348-.91 3.77-.91c1.369 0 2.591.295 3.666.884a6.1 6.1 0 0 1 2.522 2.522c.606 1.075.91 2.314.91 3.718zm-3.77-1.04c-.018-.936-.356-1.681-1.014-2.236-.659-.572-1.465-.858-2.418-.858-.902 0-1.664.277-2.288.832-.607.537-.98 1.291-1.118 2.262h6.838zm26.394-5.85l-4.212 14.404h-3.926l-2.626-10.062-2.626 10.063h-3.952l-4.238-14.404h3.692l2.548 10.972 2.756-10.972h3.848l2.704 10.946 2.548-10.946h3.484z" fill="#23005b"/><circle cx="472.099" cy="95.793" r="6.224" fill="#6139ff"/><path d="M487.181 95.882c0-.884.199-1.677.598-2.379.399-.711.94-1.265 1.625-1.664.693-.399 1.46-.598 2.301-.598.988 0 1.85.238 2.587.715s1.274 1.153 1.612 2.028h-1.417c-.251-.546-.615-.966-1.092-1.261-.468-.295-1.031-.442-1.69-.442-.633 0-1.2.147-1.703.442s-.897.715-1.183 1.261c-.286.537-.429 1.17-.429 1.898 0 .719.143 1.352.429 1.898.286.537.68.953 1.183 1.248s1.07.442 1.703.442c.659 0 1.222-.143 1.69-.429.477-.295.841-.715 1.092-1.261h1.417c-.338.867-.875 1.538-1.612 2.015-.737.468-1.599.702-2.587.702-.841 0-1.608-.195-2.301-.585a4.37 4.37 0 0 1-1.625-1.651c-.399-.702-.598-1.495-.598-2.379zm11.667-5.083v9.62h-1.183v-9.62h1.183zm2.627 1.339a.78.78 0 0 1-.572-.234c-.156-.156-.234-.347-.234-.572s.078-.416.234-.572a.78.78 0 0 1 .572-.234.72.72 0 0 1 .546.234c.156.156.234.347.234.572s-.078.416-.234.572a.72.72 0 0 1-.546.234zm.572 1.157v7.124h-1.183v-7.124h1.183zm1.574 3.549c0-.737.148-1.378.442-1.924.295-.555.702-.984 1.222-1.287.529-.303 1.131-.455 1.807-.455.876 0 1.595.212 2.158.637.572.425.949 1.014 1.131 1.768h-1.274c-.121-.433-.359-.776-.715-1.027-.346-.251-.78-.377-1.3-.377-.676 0-1.222.234-1.638.702-.416.459-.624 1.114-.624 1.963 0 .858.208 1.521.624 1.989s.962.702 1.638.702c.52 0 .954-.121 1.3-.364s.585-.589.715-1.04h1.274a3.16 3.16 0 0 1-1.144 1.755c-.572.434-1.287.65-2.145.65-.676 0-1.278-.151-1.807-.455a3.18 3.18 0 0 1-1.222-1.287c-.294-.555-.442-1.205-.442-1.95zm12.317 3.575l-2.795-3.146v3.146h-1.183v-9.62h1.183v5.655l2.743-3.159h1.651l-3.354 3.549 3.367 3.575h-1.612zm5.234.117c-.546 0-1.035-.091-1.469-.273-.433-.19-.775-.45-1.027-.78a2.11 2.11 0 0 1-.416-1.157h1.222c.035.355.2.646.494.871.304.225.698.338 1.183.338.451 0 .806-.1 1.066-.299s.39-.451.39-.754c0-.312-.138-.542-.416-.689-.277-.156-.706-.308-1.287-.455-.528-.139-.962-.277-1.3-.416-.329-.147-.615-.36-.858-.637-.234-.286-.351-.659-.351-1.118a1.69 1.69 0 0 1 .325-1.001c.217-.303.525-.542.923-.715.399-.182.854-.273 1.365-.273.789 0 1.426.199 1.911.598s.746.945.78 1.638h-1.183a1.21 1.21 0 0 0-.455-.897c-.268-.225-.632-.338-1.092-.338-.424 0-.762.091-1.014.273s-.377.42-.377.715a.82.82 0 0 0 .221.585c.156.147.347.269.572.364.234.087.555.186.962.299.512.139.928.277 1.248.416.321.13.594.329.819.598.234.269.356.62.364 1.053a1.8 1.8 0 0 1-.325 1.053c-.216.312-.524.559-.923.741-.39.174-.84.26-1.352.26z" class="B"/><path transform="matrix(.999986 -.005342 .004244 .999991 110.063 202.966)" stroke="#f2edee" d="M.5-.5h427.433" class="F"/><path d="M163.904 345.055v.962h-3.939v3.055h3.198v.962h-3.198v4.082h-1.183v-9.061h5.122zm2.612.962v3.029h3.302v.975h-3.302v3.12h3.692v.975h-4.875v-9.074h4.875v.975h-3.692zm10.019 3.432c.329.052.628.187.897.403a2.28 2.28 0 0 1 .65.806c.165.321.247.663.247 1.027 0 .46-.117.876-.351 1.248-.234.364-.576.655-1.027.871-.442.208-.966.312-1.573.312h-3.38v-9.061h3.25c.615 0 1.14.104 1.573.312.433.2.758.473.975.819a2.16 2.16 0 0 1 .325 1.17c0 .538-.147.984-.442 1.339-.286.347-.667.598-1.144.754zm-3.354-.481h1.989c.555 0 .984-.13 1.287-.39s.455-.619.455-1.079-.152-.819-.455-1.079-.741-.39-1.313-.39h-1.963v2.938zm2.093 4.173c.589 0 1.049-.138 1.378-.416s.494-.663.494-1.157c0-.502-.173-.897-.52-1.183-.347-.294-.81-.442-1.391-.442h-2.054v3.198h2.093z" class="B"/><path d="M274.82 345.12v8.996h-1.183v-6.708l-2.99 6.708h-.832l-3.003-6.721v6.721h-1.183v-8.996h1.274l3.328 7.436 3.328-7.436h1.261zm7.363 6.981h-3.952l-.728 2.015h-1.248l3.276-9.009h1.365l3.263 9.009h-1.248l-.728-2.015zm-.338-.962l-1.638-4.576-1.638 4.576h3.276zm8.513 2.977l-2.158-3.705h-1.43v3.705h-1.183v-9.061h2.925c.684 0 1.261.117 1.729.351.476.234.832.551 1.066.949s.351.854.351 1.365c0 .624-.182 1.175-.546 1.651-.356.477-.893.793-1.612.949l2.275 3.796h-1.417zm-3.588-4.654h1.742c.641 0 1.122-.156 1.443-.468.32-.32.481-.745.481-1.274 0-.537-.161-.953-.481-1.248-.312-.294-.793-.442-1.443-.442h-1.742v3.432z" class="B"/><path d="M383.02 352.101h-3.952l-.728 2.015h-1.248l3.276-9.009h1.365l3.263 9.009h-1.248l-.728-2.015zm-.338-.962l-1.638-4.576-1.638 4.576h3.276zm9.799-3.432c0 .754-.26 1.383-.78 1.885-.511.494-1.295.741-2.353.741h-1.742v3.783h-1.183v-9.061h2.925c1.023 0 1.799.247 2.327.741.538.494.806 1.131.806 1.911zm-3.133 1.651c.659 0 1.144-.143 1.456-.429s.468-.693.468-1.222c0-1.118-.641-1.677-1.924-1.677h-1.742v3.328h1.742zm9.375 4.758l-2.158-3.705h-1.43v3.705h-1.183v-9.061h2.925c.684 0 1.261.117 1.729.351.476.234.832.551 1.066.949s.351.854.351 1.365c0 .624-.182 1.175-.546 1.651-.356.477-.893.793-1.612.949l2.275 3.796h-1.417zm-3.588-4.654h1.742c.641 0 1.122-.156 1.443-.468.32-.32.481-.745.481-1.274 0-.537-.161-.953-.481-1.248-.312-.294-.793-.442-1.443-.442h-1.742v3.432z" class="B"/><path d="M495.777 345.12v8.996h-1.183v-6.708l-2.99 6.708h-.832l-3.003-6.721v6.721h-1.183v-8.996h1.274l3.328 7.436 3.328-7.436h1.261zm7.362 6.981h-3.952l-.728 2.015h-1.248l3.276-9.009h1.365l3.263 9.009h-1.248l-.728-2.015zm-.338-.962l-1.638-4.576-1.638 4.576h3.276zm10.086-6.084l-2.951 5.642v3.419h-1.183v-3.419l-2.964-5.642h1.313l2.236 4.589 2.236-4.589h1.313z" class="B"/><path stroke="#979699" d="M110.563 318.831H537.99" class="F G"/><path stroke="#979699" d="M110.563 260.64H537.99" class="F G"/><g filter="url(#D)" class="F"><path d="M116.287 228.562s16.763 60.51 37.103 60.51c26.687 0 36.783-46.452 49.795-68.519 25.711-43.603 51.423-13.348 79.412 8.009 29.053 22.168 44.23 49.415 77.46 47.162 31.38-2.127 49.745-55.493 80.714-62.735 23.619-5.523 69.507 29.164 85.27 53.837" stroke="#8566ff" stroke-width="3"/></g><path d="M66.988 312.045v-1.079h2.444v9.399h-1.196v-8.32h-1.248zm4.476 3.523c0-1.49.243-2.652.728-3.484.485-.84 1.335-1.261 2.548-1.261 1.205 0 2.05.421 2.535 1.261.485.832.728 1.994.728 3.484 0 1.517-.243 2.696-.728 3.536s-1.33 1.261-2.535 1.261c-1.213 0-2.063-.42-2.548-1.261s-.728-2.019-.728-3.536zm5.369 0c0-.754-.052-1.391-.156-1.911-.095-.528-.299-.953-.611-1.274-.303-.32-.745-.481-1.326-.481-.589 0-1.04.161-1.352.481-.303.321-.507.746-.611 1.274-.095.52-.143 1.157-.143 1.911 0 .78.048 1.435.143 1.963.104.529.308.954.611 1.274.312.321.763.481 1.352.481.581 0 1.023-.16 1.326-.481.312-.32.516-.745.611-1.274.104-.528.156-1.183.156-1.963zm12.18-4.199v8.996H87.83v-6.708l-2.99 6.708h-.832l-3.003-6.721v6.721h-1.183v-8.996h1.274l3.328 7.436 3.328-7.436h1.261z" class="B"/><path d="M71.218 253.803h-4.563v2.964c.199-.278.494-.503.884-.676.39-.182.81-.273 1.261-.273.719 0 1.304.151 1.755.455a2.44 2.44 0 0 1 .962 1.157c.199.468.299.966.299 1.495 0 .624-.117 1.183-.351 1.677s-.594.884-1.079 1.17c-.477.286-1.07.429-1.781.429-.91 0-1.647-.234-2.21-.702s-.906-1.092-1.027-1.872h1.157c.113.494.351.879.715 1.157s.823.416 1.378.416c.685 0 1.2-.204 1.547-.611.347-.416.52-.962.52-1.638s-.173-1.196-.52-1.56c-.347-.373-.858-.559-1.534-.559-.459 0-.862.112-1.209.338a1.88 1.88 0 0 0-.741.897h-1.118v-5.304h5.655v1.04zm2.17 3.575c0-1.491.243-2.652.728-3.484.485-.841 1.335-1.261 2.548-1.261 1.205 0 2.05.42 2.535 1.261.485.832.728 1.993.728 3.484 0 1.516-.243 2.695-.728 3.536s-1.33 1.261-2.535 1.261c-1.213 0-2.063-.421-2.548-1.261s-.728-2.02-.728-3.536zm5.369 0c0-.754-.052-1.391-.156-1.911-.095-.529-.299-.954-.611-1.274-.303-.321-.745-.481-1.326-.481-.589 0-1.04.16-1.352.481-.303.32-.507.745-.611 1.274-.095.52-.143 1.157-.143 1.911 0 .78.048 1.434.143 1.963.104.528.308.953.611 1.274.312.32.763.481 1.352.481.581 0 1.023-.161 1.326-.481.312-.321.516-.746.611-1.274.104-.529.156-1.183.156-1.963zm12.18-4.199v8.996h-1.183v-6.708l-2.99 6.708h-.832l-3.003-6.721v6.721h-1.183v-8.996h1.274l3.328 7.436 3.328-7.436h1.261z" class="B"/><path d="M58.689 195.68v-1.079h2.444V204h-1.196v-8.32h-1.248zm4.476 3.523c0-1.491.243-2.652.728-3.484.485-.841 1.335-1.261 2.548-1.261 1.205 0 2.05.42 2.535 1.261.485.832.728 1.993.728 3.484 0 1.517-.243 2.695-.728 3.536S67.646 204 66.441 204c-1.213 0-2.063-.42-2.548-1.261s-.728-2.019-.728-3.536zm5.369 0c0-.754-.052-1.391-.156-1.911-.095-.529-.299-.953-.611-1.274-.303-.321-.745-.481-1.326-.481-.589 0-1.04.16-1.352.481-.303.321-.507.745-.611 1.274-.095.52-.143 1.157-.143 1.911 0 .78.048 1.434.143 1.963.104.529.308.953.611 1.274.312.321.763.481 1.352.481.581 0 1.023-.16 1.326-.481.312-.321.516-.745.611-1.274.104-.529.156-1.183.156-1.963zm2.794 0c0-1.491.243-2.652.728-3.484.485-.841 1.335-1.261 2.548-1.261 1.205 0 2.05.42 2.535 1.261.485.832.728 1.993.728 3.484 0 1.517-.243 2.695-.728 3.536S75.809 204 74.605 204c-1.213 0-2.063-.42-2.548-1.261s-.728-2.019-.728-3.536zm5.369 0c0-.754-.052-1.391-.156-1.911-.095-.529-.299-.953-.611-1.274-.303-.321-.745-.481-1.326-.481-.589 0-1.04.16-1.352.481-.303.321-.507.745-.611 1.274-.095.52-.143 1.157-.143 1.911 0 .78.048 1.434.143 1.963.104.529.308.953.611 1.274.312.321.763.481 1.352.481.581 0 1.023-.16 1.326-.481.312-.321.516-.745.611-1.274.104-.529.156-1.183.156-1.963zm12.18-4.199V204h-1.183v-6.708L84.705 204h-.832l-3.003-6.721V204h-1.183v-8.996h1.274l3.328 7.436 3.328-7.436h1.261z" class="B"/><g filter="url(#E)"><path d="M175.416 149.221a2 2 0 0 1 2-2h111.146a2 2 0 0 1 2 2v26.083a2 2 0 0 1-2 2h-40.564a1.99 1.99 0 0 0-.917.223l-14.682 7.577a2 2 0 0 1-1.91-.04l-13.118-7.496c-.302-.173-.644-.264-.992-.264h-38.963a2 2 0 0 1-2-2v-26.083z" fill="#fff"/></g><path d="M195.025 158.347v.962h-3.939v3.055h3.198v.962h-3.198v4.082h-1.183v-9.061h5.122zm7.929 5.226c0 .225-.013.463-.039.715h-5.694c.043.702.281 1.252.715 1.651.442.39.975.585 1.599.585.511 0 .936-.117 1.274-.351.346-.243.589-.564.728-.962h1.274a3.1 3.1 0 0 1-1.144 1.677c-.572.424-1.283.637-2.132.637-.676 0-1.283-.152-1.82-.455-.529-.304-.945-.733-1.248-1.287-.304-.564-.455-1.214-.455-1.95s.147-1.383.442-1.937a3.06 3.06 0 0 1 1.235-1.274c.537-.304 1.152-.455 1.846-.455.676 0 1.274.147 1.794.442s.918.702 1.196 1.222c.286.511.429 1.092.429 1.742zm-1.222-.247c0-.451-.1-.837-.299-1.157a1.88 1.88 0 0 0-.819-.741c-.338-.174-.715-.26-1.131-.26-.598 0-1.11.19-1.534.572-.416.381-.655.91-.715 1.586h4.498zm3.966-1.716c.243-.425.598-.772 1.066-1.04a3.15 3.15 0 0 1 1.599-.403c.641 0 1.218.151 1.729.455a3.21 3.21 0 0 1 1.209 1.287c.295.546.442 1.183.442 1.911 0 .719-.147 1.36-.442 1.924s-.702 1.001-1.222 1.313c-.511.312-1.083.468-1.716.468-.615 0-1.157-.135-1.625-.403-.459-.269-.806-.611-1.04-1.027v1.313h-1.183v-9.62h1.183v3.822zm4.836 2.21c0-.538-.108-1.006-.325-1.404s-.511-.702-.884-.91c-.364-.208-.767-.312-1.209-.312-.433 0-.836.108-1.209.325-.364.208-.659.515-.884.923-.217.398-.325.862-.325 1.391 0 .537.108 1.009.325 1.417.225.398.52.706.884.923a2.44 2.44 0 0 0 1.209.312c.442 0 .845-.104 1.209-.312.373-.217.667-.525.884-.923.217-.408.325-.884.325-1.43zm5.894 2.639l2.587-2.171a10.62 10.62 0 0 0 1.573-1.781c.433-.624.65-1.235.65-1.833 0-.564-.139-1.006-.416-1.326-.269-.33-.706-.494-1.313-.494-.589 0-1.049.186-1.378.559-.321.364-.494.853-.52 1.469h-1.144c.035-.971.329-1.721.884-2.249s1.27-.793 2.145-.793c.893 0 1.599.247 2.119.741.529.494.793 1.174.793 2.041 0 .719-.217 1.421-.65 2.106a9.29 9.29 0 0 1-1.456 1.794l-2.093 1.794h4.472v.988h-6.253v-.845zm7.309-7.371v-1.079h2.444v9.399h-1.196v-8.32h-1.248z" class="B"/><path d="M244.433 164.834c.086.433.273.762.559.988s.671.338 1.157.338c.615 0 1.066-.243 1.352-.728s.429-1.313.429-2.483c-.208.294-.503.524-.884.689-.373.156-.78.234-1.222.234-.564 0-1.075-.113-1.534-.338-.46-.234-.824-.577-1.092-1.027-.26-.46-.39-1.014-.39-1.664 0-.954.277-1.712.832-2.275.563-.572 1.334-.858 2.314-.858 1.178 0 2.015.394 2.509 1.183.502.78.754 1.98.754 3.601 0 1.118-.096 2.032-.286 2.743-.182.71-.503 1.248-.962 1.612s-1.097.546-1.911.546c-.928 0-1.643-.243-2.145-.728s-.785-1.097-.845-1.833h1.365zm1.651-2.21c.52 0 .927-.161 1.222-.481.303-.33.455-.763.455-1.3 0-.598-.161-1.062-.481-1.391-.312-.338-.741-.507-1.287-.507s-.98.173-1.3.52c-.312.338-.468.784-.468 1.339 0 .528.151.966.455 1.313.312.338.78.507 1.404.507zm4.755-.078c0-1.5.251-2.67.754-3.51.511-.85 1.386-1.274 2.626-1.274s2.11.424 2.613 1.274c.511.84.767 2.01.767 3.51 0 1.516-.256 2.704-.767 3.562-.503.849-1.374 1.274-2.613 1.274s-2.115-.425-2.626-1.274c-.503-.858-.754-2.046-.754-3.562zm5.304 0c0-.702-.048-1.296-.143-1.781-.087-.486-.269-.88-.546-1.183-.278-.312-.689-.468-1.235-.468s-.958.156-1.235.468c-.278.303-.464.697-.559 1.183-.087.485-.13 1.079-.13 1.781 0 .728.043 1.339.13 1.833s.268.892.546 1.196c.286.303.702.455 1.248.455s.957-.152 1.235-.455c.286-.304.472-.702.559-1.196s.13-1.105.13-1.833zm12.735-4.173v9.035h-1.482v-6.188l-2.756 6.188h-1.027l-2.769-6.188v6.188h-1.482v-9.035h1.599l3.172 7.085 3.159-7.085h1.586z" fill="#23005b"/></g></g><g filter="url(#F)"><rect x="481" y="436" width="112" height="151" rx="15" fill="#fff"/><path d="M505.753 463.5h-1.145c-.068-.329-.186-.619-.356-.868a2.38 2.38 0 0 0-.609-.628c-.237-.172-.5-.301-.789-.388s-.591-.129-.905-.129c-.573 0-1.091.145-1.556.434s-.829.716-1.103 1.279-.406 1.254-.406 2.073.135 1.509.406 2.073.641.989 1.103 1.278.983.434 1.556.434c.314 0 .615-.043.905-.129a2.65 2.65 0 0 0 .789-.383 2.43 2.43 0 0 0 .609-.633 2.41 2.41 0 0 0 .356-.868h1.145c-.086.484-.243.916-.471 1.298a3.57 3.57 0 0 1-.849.974 3.75 3.75 0 0 1-1.141.605 4.26 4.26 0 0 1-1.343.207c-.806 0-1.524-.197-2.151-.591s-1.122-.954-1.482-1.68-.54-1.588-.54-2.585.18-1.859.54-2.585.854-1.287 1.482-1.681 1.345-.591 2.151-.591a4.23 4.23 0 0 1 1.343.208c.422.138.802.342 1.141.609s.621.588.849.97.385.811.471 1.297zm2.792-2.955V470h-1.09v-9.455h1.09zM510.54 470v-7.091h1.09V470h-1.09zm.554-8.273c-.212 0-.395-.072-.549-.217s-.226-.318-.226-.521.075-.377.226-.522.337-.217.549-.217a.76.76 0 0 1 .545.217.69.69 0 0 1 .231.522c0 .203-.077.377-.231.521a.76.76 0 0 1-.545.217zm5.412 8.421c-.665 0-1.237-.157-1.718-.471s-.849-.746-1.108-1.297-.387-1.181-.387-1.889c0-.72.132-1.355.397-1.906s.64-.987 1.117-1.297 1.04-.471 1.68-.471c.499 0 .948.092 1.348.277s.728.443.984.775.414.72.475 1.164h-1.089a1.69 1.69 0 0 0-.554-.859c-.283-.252-.665-.379-1.145-.379a1.91 1.91 0 0 0-1.117.333c-.317.218-.565.528-.744.928s-.263.863-.263 1.399c0 .547.086 1.024.259 1.431s.421.721.738.946.696.337 1.127.337c.283 0 .54-.049.771-.148s.426-.24.586-.424a1.64 1.64 0 0 0 .342-.665h1.089c-.061.418-.214.795-.457 1.131s-.559.597-.956.794-.852.291-1.375.291zm5.396-2.733l-.018-1.348h.222l3.102-3.158h1.348l-3.306 3.342h-.092l-1.256 1.164zM520.887 470v-9.455h1.089V470h-1.089zm4.505 0l-2.769-3.509.775-.757 3.379 4.266h-1.385zm7.589-5.503l-.979.277c-.061-.163-.152-.321-.272-.475s-.277-.287-.48-.388-.464-.152-.781-.152c-.433 0-.795.1-1.084.3s-.43.447-.43.752c0 .271.099.485.296.642s.504.288.923.392l1.053.259c.634.154 1.106.389 1.417.706s.466.719.466 1.214a1.8 1.8 0 0 1-.351 1.09c-.231.32-.554.572-.969.757s-.899.277-1.45.277c-.723 0-1.322-.157-1.796-.471s-.774-.773-.9-1.376l1.034-.258c.099.381.285.667.559.858s.638.287 1.085.287c.508 0 .911-.108 1.209-.324s.453-.48.453-.784c0-.247-.087-.453-.259-.619s-.437-.296-.794-.379l-1.182-.277c-.649-.153-1.126-.392-1.431-.715s-.452-.734-.452-1.224c0-.4.112-.754.337-1.061a2.29 2.29 0 0 1 .928-.725c.394-.176.84-.263 1.338-.263.702 0 1.253.154 1.653.461a2.49 2.49 0 0 1 .859 1.219z" class="B"/><path d="M498.145 537v-9.455h3.194c.739 0 1.345.127 1.819.379s.825.592 1.053 1.029.342.935.342 1.492-.114 1.051-.342 1.481-.577.77-1.048 1.016-1.073.365-1.805.365h-2.585v-1.034h2.548c.505 0 .911-.074 1.219-.222s.535-.357.674-.628.212-.6.212-.978-.071-.71-.212-.993-.368-.502-.679-.655-.722-.236-1.232-.236h-2.013V537h-1.145zm4.45-4.247l2.327 4.247h-1.33l-2.289-4.247h1.292zm6.614 4.395c-.683 0-1.272-.151-1.768-.453s-.872-.729-1.14-1.274-.397-1.185-.397-1.911.132-1.367.397-1.921.64-.991 1.117-1.301 1.04-.471 1.681-.471c.369 0 .734.061 1.094.184a2.72 2.72 0 0 1 .983.601c.296.273.531.637.706 1.089s.264 1.01.264 1.671v.462h-5.466v-.942h4.358c0-.4-.08-.757-.241-1.071s-.381-.562-.674-.743a1.88 1.88 0 0 0-1.024-.273c-.434 0-.81.108-1.127.324s-.555.489-.725.831a2.44 2.44 0 0 0-.253 1.098v.628c0 .536.092.99.277 1.362s.447.651.78.845.718.286 1.158.286c.287 0 .545-.04.776-.12s.435-.206.605-.369.3-.373.392-.619l1.053.296a2.33 2.33 0 0 1-.559.941c-.261.268-.585.477-.969.628s-.817.222-1.298.222zm6.68.018c-.449 0-.857-.084-1.223-.254s-.657-.42-.872-.743-.324-.72-.324-1.182c0-.406.08-.735.24-.988s.374-.455.642-.6.563-.252.887-.323l.983-.175 1.048-.125c.271-.031.468-.082.591-.152s.189-.194.189-.37v-.037c0-.455-.125-.809-.374-1.061s-.62-.379-1.122-.379c-.52 0-.928.114-1.223.342s-.503.47-.623.729l-1.034-.369c.184-.431.43-.767.738-1.007s.65-.412 1.016-.508a4.23 4.23 0 0 1 1.089-.147 4.26 4.26 0 0 1 .785.083c.299.052.586.161.863.328s.513.417.697.752.277.785.277 1.348V537h-1.089v-.96h-.055c-.074.154-.197.318-.37.494s-.401.324-.688.448-.635.184-1.048.184zm.167-.978c.431 0 .794-.085 1.089-.254a1.73 1.73 0 0 0 .674-.656 1.67 1.67 0 0 0 .231-.845v-.997c-.046.055-.148.106-.305.152a4.94 4.94 0 0 1-.535.116l-.587.083-.457.055a4.19 4.19 0 0 0-.794.18c-.243.08-.44.202-.59.365s-.222.379-.222.656c0 .378.14.664.42.858s.642.287 1.076.287zm7.953.96c-.665 0-1.238-.157-1.718-.471s-.849-.746-1.108-1.297-.387-1.181-.387-1.889c0-.72.132-1.355.397-1.906s.64-.987 1.117-1.297 1.04-.471 1.68-.471c.499 0 .948.092 1.348.277s.728.443.984.775.413.72.475 1.164h-1.089c-.084-.323-.268-.61-.554-.859s-.665-.379-1.145-.379a1.91 1.91 0 0 0-1.117.333c-.317.218-.565.528-.744.928s-.263.863-.263 1.399c0 .547.086 1.024.259 1.431s.421.721.738.946.696.337 1.127.337c.283 0 .54-.049.771-.148s.426-.24.586-.424a1.64 1.64 0 0 0 .342-.665h1.089c-.062.418-.214.795-.457 1.131s-.559.597-.956.794-.852.291-1.375.291zm5.47-4.414V537h-1.089v-9.455h1.089v3.472h.093a2 2 0 0 1 .747-.872c.336-.219.782-.328 1.339-.328.483 0 .907.097 1.27.291s.645.484.845.881.304.896.304 1.505V537h-1.089v-4.432c0-.563-.146-.999-.439-1.306s-.691-.467-1.205-.467c-.357 0-.677.076-.96.227a1.65 1.65 0 0 0-.665.66c-.16.289-.24.64-.24 1.052z" class="B"/><path d="M498.035 484.625v-2.392h4.784V499h-2.645v-14.375h-2.139zm9.835 10.81l3.473-3.128c.859-.828 1.572-1.687 2.139-2.576s.851-1.779.851-2.668c0-.92-.222-1.641-.667-2.162-.429-.521-1.112-.782-2.047-.782-.905 0-1.61.291-2.116.874-.491.567-.751 1.334-.782 2.3h-2.53c.046-1.748.567-3.082 1.564-4.002 1.012-.935 2.292-1.403 3.841-1.403 1.671 0 2.975.46 3.91 1.38.951.92 1.426 2.147 1.426 3.68 0 1.104-.284 2.17-.851 3.197-.552 1.012-1.219 1.924-2.001 2.737l-2.944 2.783-1.035.92h7.291v2.185h-11.178v-1.909l1.656-1.426zm11.825-5.037c0-2.653.445-4.723 1.334-6.21.905-1.503 2.454-2.254 4.646-2.254s3.734.751 4.623 2.254c.905 1.487 1.357 3.557 1.357 6.21 0 2.683-.452 4.784-1.357 6.302-.889 1.503-2.43 2.254-4.623 2.254s-3.741-.751-4.646-2.254c-.889-1.518-1.334-3.619-1.334-6.302zm9.384 0c0-1.242-.084-2.292-.253-3.151-.153-.859-.475-1.556-.966-2.093-.49-.552-1.219-.828-2.185-.828s-1.694.276-2.185.828c-.49.537-.82 1.234-.989 2.093-.153.859-.23 1.909-.23 3.151 0 1.288.077 2.369.23 3.243s.476 1.579.966 2.116c.506.537 1.242.805 2.208.805s1.695-.268 2.185-.805c.506-.537.836-1.242.989-2.116s.23-1.955.23-3.243zM543.584 499l-6.187-7.153V499h-2.622v-15.985h2.622v7.291l6.21-7.291h3.289l-6.946 8.004 7.061 7.981h-3.427z" class="E"/><path d="M501.209 557.237c-1.595-.797-2.392-2.055-2.392-3.772 0-.828.207-1.587.621-2.277s1.035-1.234 1.863-1.633c.828-.414 1.84-.621 3.036-.621 1.181 0 2.185.207 3.013.621.843.399 1.472.943 1.886 1.633s.621 1.449.621 2.277c0 .859-.222 1.618-.667 2.277a4.3 4.3 0 0 1-1.725 1.495c.874.322 1.564.851 2.07 1.587.506.721.759 1.572.759 2.553 0 .997-.253 1.878-.759 2.645s-1.211 1.357-2.116 1.771-1.932.621-3.082.621-2.177-.207-3.082-.621c-.889-.414-1.587-1.004-2.093-1.771s-.759-1.648-.759-2.645.253-1.855.759-2.576 1.188-1.242 2.047-1.564zm6.141-3.45c0-.859-.268-1.518-.805-1.978s-1.273-.69-2.208-.69c-.92 0-1.648.23-2.185.69s-.805 1.127-.805 2.001c0 .767.276 1.395.828 1.886.567.475 1.288.713 2.162.713s1.595-.245 2.162-.736a2.38 2.38 0 0 0 .851-1.886zm-3.013 4.6c-1.012 0-1.84.253-2.484.759-.629.491-.943 1.204-.943 2.139 0 .874.307 1.587.92 2.139.613.537 1.449.805 2.507.805 1.043 0 1.863-.276 2.461-.828.613-.552.92-1.257.92-2.116 0-.92-.314-1.633-.943-2.139-.613-.506-1.426-.759-2.438-.759zm8.71-.989c0-2.653.445-4.723 1.334-6.21.905-1.503 2.453-2.254 4.646-2.254s3.734.751 4.623 2.254c.905 1.487 1.357 3.557 1.357 6.21 0 2.683-.452 4.784-1.357 6.302-.889 1.503-2.43 2.254-4.623 2.254s-3.741-.751-4.646-2.254c-.889-1.518-1.334-3.619-1.334-6.302zm9.384 0c0-1.242-.084-2.292-.253-3.151-.153-.859-.475-1.556-.966-2.093-.491-.552-1.219-.828-2.185-.828s-1.694.276-2.185.828c-.491.537-.82 1.234-.989 2.093-.153.859-.23 1.909-.23 3.151 0 1.288.077 2.369.23 3.243s.475 1.579.966 2.116c.506.537 1.242.805 2.208.805s1.694-.268 2.185-.805c.506-.537.836-1.242.989-2.116s.23-1.955.23-3.243zm22.531-7.383V566h-2.622v-10.948L537.464 566h-1.817l-4.899-10.948V566h-2.622v-15.985h2.829l5.612 12.535 5.589-12.535h2.806z" class="E"/><use href="#H" fill="#27be5e"/><use href="#H" y="67" fill="#27be5e"/><path stroke="#f4f3f4" d="M490 515.5h95"/></g><defs><filter id="A" x="78" y="409" width="369" height="133" filterUnits="userSpaceOnUse" class="C"><feFlood result="A" class="D"/><feColorMatrix in="SourceAlpha" values="0 0 0 0 0 0 0 0 0 0 0 0 0 0 0 0 0 0 127 0" result="B"/><feOffset dy="4"/><feGaussianBlur stdDeviation="12.5"/><feComposite in2="B" operator="out"/><feColorMatrix values="0 0 0 0 0 0 0 0 0 0 0 0 0 0 0 0 0 0 0.03 0"/><feBlend in2="A"/><feBlend in="SourceGraphic"/></filter><filter id="B" x="0" y="25" width="599" height="399" filterUnits="userSpaceOnUse" class="C"><feFlood result="A" class="D"/><feColorMatrix in="SourceAlpha" values="0 0 0 0 0 0 0 0 0 0 0 0 0 0 0 0 0 0 127 0" result="B"/><feOffset dy="4"/><feGaussianBlur stdDeviation="12.5"/><feComposite in2="B" operator="out"/><feColorMatrix values="0 0 0 0 0 0 0 0 0 0 0 0 0 0 0 0 0 0 0.03 0"/><feBlend in2="A"/><feBlend in="SourceGraphic"/></filter><filter id="C" x="275" y="186" width="28" height="28" filterUnits="userSpaceOnUse" class="C"><feFlood result="A" class="D"/><feColorMatrix in="SourceAlpha" values="0 0 0 0 0 0 0 0 0 0 0 0 0 0 0 0 0 0 127 0" result="B"/><feOffset dy="4"/><feGaussianBlur stdDeviation="3"/><feComposite in2="B" operator="out"/><feColorMatrix values="0 0 0 0 0.17219 0 0 0 0 0.0904896 0 0 0 0 0.304167 0 0 0 0.22 0"/><feBlend in2="A"/><feBlend in="SourceGraphic"/></filter><filter id="D" x="104.787" y="191.794" width="432.755" height="113.778" filterUnits="userSpaceOnUse" class="C"><feFlood result="A" class="D"/><feColorMatrix in="SourceAlpha" values="0 0 0 0 0 0 0 0 0 0 0 0 0 0 0 0 0 0 127 0" result="B"/><feOffset dy="5"/><feGaussianBlur stdDeviation="5"/><feComposite in2="B" operator="out"/><feColorMatrix values="0 0 0 0 0.309804 0 0 0 0 0.235294 0 0 0 0 0.752941 0 0 0 0.2 0"/><feBlend in2="A"/><feBlend in="SourceGraphic"/></filter><filter id="E" x="169.416" y="145.221" width="127.146" height="50.106" filterUnits="userSpaceOnUse" class="C"><feFlood result="A" class="D"/><feColorMatrix in="SourceAlpha" values="0 0 0 0 0 0 0 0 0 0 0 0 0 0 0 0 0 0 127 0" result="B"/><feOffset dy="4"/><feGaussianBlur stdDeviation="3"/><feComposite in2="B" operator="out"/><feColorMatrix values="0 0 0 0 0 0 0 0 0 0 0 0 0 0 0 0 0 0 0.13 0"/><feBlend in2="A"/><feBlend in="SourceGraphic"/></filter><filter id="F" x="456" y="415" width="162" height="201" filterUnits="userSpaceOnUse" class="C"><feFlood result="A" class="D"/><feColorMatrix in="SourceAlpha" values="0 0 0 0 0 0 0 0 0 0 0 0 0 0 0 0 0 0 127 0" result="B"/><feOffset dy="4"/><feGaussianBlur stdDeviation="12.5"/><feComposite in2="B" operator="out"/><feColorMatrix values="0 0 0 0 0 0 0 0 0 0 0 0 0 0 0 0 0 0 0.03 0"/><feBlend in2="A"/><feBlend in="SourceGraphic"/></filter><clipPath id="G"><rect x="25" y="46" width="549" height="349" rx="20" fill="#fff"/></clipPath><path id="H" d="M574.37 486.16a.89.89 0 0 0-.214-.223c-.126-.091-3.124-2.201-7.666.226-.425.228-.587.758-.358 1.184s.757.587 1.184.36c2.174-1.162 3.841-1.05 4.822-.778l-5.429 5.197a1.57 1.57 0 0 1-1.186.462c-.439-.018-.846-.218-1.147-.562a3.34 3.34 0 0 0-2.389-1.156c-.916-.041-1.8.298-2.476.951-.024.023-3.307 3.999-3.307 3.999-.308.373-.266.938.118 1.232.542.415 1.059.091 1.232-.118l3.204-3.884c.323-.296.73-.447 1.155-.431.439.018.846.218 1.147.562.619.707 1.468 1.118 2.389 1.156.912.036 1.802-.299 2.473-.948l5.414-5.184c.263 1.043.366 2.804-.756 5.093-.212.434-.044.981.4 1.171a.88.88 0 0 0 1.171-.401c2.3-4.691.307-7.777.221-7.907l-.002-.001z"/></defs></svg>