<svg width="32" height="32" viewBox="0 0 32 32" fill="none" xmlns="http://www.w3.org/2000/svg">
<rect width="32" height="32" rx="8" fill="#6139FF"/>
<path d="M12.0767 24.4299C8.95684 24.1872 6.45496 22.7111 6.04392 20.8706C5.95892 20.49 6.00309 19.7337 6.12656 19.4557C6.28284 19.1039 6.47506 18.8978 6.79288 18.7413C7.35231 18.4658 8.08581 18.4552 8.63174 18.7149C9.14137 18.9572 9.51617 19.3856 10.1266 20.4235C10.8131 21.5906 11.2554 22.1376 11.7582 22.4408C12.6133 22.9566 13.8201 22.9285 14.4467 22.3782C15.0644 21.8356 15.0093 20.5378 14.3376 19.8088C13.8357 19.2642 13.2356 18.9652 11.3945 18.3424C9.80472 17.8048 9.48765 17.6818 8.8492 17.3551C7.33624 16.5811 6.5208 15.4943 6.27185 13.9199C6.19332 13.4234 6.21266 12.4764 6.31092 12.007C6.66329 10.3234 7.89218 9.03638 9.73359 8.42255C11.424 7.85905 13.5077 7.85925 15.3422 8.42255C17.6201 9.12265 19.1024 10.5735 19.1061 12.1063C19.108 12.8945 18.7656 13.5122 18.1775 13.7815C17.6301 14.0322 16.7671 14.0293 16.2116 13.7748C15.5478 13.4708 15.214 13.0667 14.5631 11.7795C13.9997 10.6653 13.8248 10.3843 13.5074 10.0841C13.1299 9.72689 12.9264 9.65204 12.3261 9.64959C11.8699 9.6477 11.8029 9.65868 11.5438 9.77822C11.2164 9.92923 10.9374 10.2075 10.7982 10.5218C10.6678 10.8165 10.633 11.6116 10.732 12.0338C10.9567 12.9912 11.6407 13.7024 12.8477 14.2333C13.0847 14.3376 13.799 14.6014 14.4351 14.8196C16.3595 15.4797 16.9949 15.7674 17.6975 16.2971C18.7468 17.0881 19.2523 18.1937 19.2496 19.6918C19.2484 20.3158 19.1799 20.7249 18.9933 21.2221C18.3371 22.9707 16.4336 24.1522 13.852 24.4135C13.4133 24.4579 12.5438 24.4656 12.0767 24.4293V24.4299Z" fill="white"/>
<path d="M21.3374 23.0105C21.6797 23.3529 22.2394 23.6123 22.847 23.7102C23.1006 23.7511 23.9794 23.6994 24.253 23.6276C25.1524 23.3913 25.7606 22.7937 25.9338 21.976C26.1763 20.8318 25.7414 19.8203 24.8115 19.3655C24.3259 19.128 23.978 19.0523 23.3685 19.054C22.4613 19.0556 21.8348 19.2762 21.3475 19.7656C20.9078 20.2073 20.7402 20.6543 20.7385 21.382C20.7376 22.1033 20.9163 22.5892 21.3374 23.0105Z" fill="white"/>
</svg>
