<svg xmlns="http://www.w3.org/2000/svg" width="359" height="182" fill="none"><g filter="url(#a)"><rect width="281" height="60" x="53" y="93" fill="#FAFAFA" rx="10"/><rect width="280" height="59" x="53.5" y="93.5" stroke="#D9D9D9" stroke-opacity=".39" rx="9.5"/><rect width="170" height="11" x="124" y="108" fill="#E9E9E9" fill-opacity=".3" rx="5.5"/><rect width="62" height="11" x="131" y="125" fill="#D9D9D9" fill-opacity=".15" rx="5.5"/><rect width="48" height="48" x="62" y="99" fill="#EAE6FF" fill-opacity=".26" rx="10"/><path fill="#3F3F3F" fill-opacity=".7" d="M92.674 120.322c1.865 2.691 1.482 6.316-.854 8.08l-3.26 2.462c-2.337 1.764-5.755 1.01-7.621-1.681s-1.483-6.316.854-8.081c.36-.271.884-.156 1.172.259s.229.971-.131 1.243c-1.617 1.221-1.883 3.731-.591 5.594 1.291 1.863 3.659 2.385 5.276 1.164l3.26-2.462c1.617-1.221 1.882-3.731.59-5.594-.7-1.012-1.749-1.668-2.874-1.801-.46-.055-.828-.498-.82-.991s.388-.847.848-.795c1.624.192 3.137 1.141 4.15 2.603m-15.112 7.376zc-1.125-.132-2.173-.789-2.875-1.801-1.291-1.863-1.026-4.373.592-5.594l3.26-2.462c1.617-1.221 3.984-.699 5.275 1.164s1.027 4.373-.59 5.594c-.36.272-.42.828-.132 1.243s.812.531 1.172.259c2.337-1.765 2.72-5.39.854-8.081-1.865-2.691-5.284-3.445-7.62-1.681l-3.26 2.462c-2.337 1.764-2.72 5.39-.855 8.081 1.014 1.461 2.526 2.41 4.152 2.602a.74.74 0 0 0 .533-.141.82.82 0 0 0 .314-.652c.008-.493-.36-.937-.82-.991z"/></g><g filter="url(#b)"><rect width="281" height="60" x="25" y="21" fill="#FAFAFA" rx="10"/><rect width="280" height="59" x="25.5" y="21.5" stroke="#D9D9D9" stroke-opacity=".39" rx="9.5"/><rect width="170" height="11" x="96" y="36" fill="#E9E9E9" fill-opacity=".45" rx="5.5"/><rect width="62" height="11" x="103" y="53" fill="#D9D9D9" fill-opacity=".25" rx="5.5"/><rect width="48" height="48" x="34" y="27" fill="#EAE6FF" fill-opacity=".26" rx="10"/><path fill="#3F3F3F" fill-opacity=".7" d="M67.674 48.322c1.865 2.69 1.482 6.316-.854 8.08l-3.26 2.462c-2.337 1.764-5.756 1.01-7.621-1.68-1.866-2.692-1.483-6.317.854-8.082.36-.271.885-.156 1.172.259.288.415.229.971-.131 1.243-1.617 1.221-1.883 3.732-.591 5.594 1.291 1.863 3.658 2.385 5.276 1.164l3.26-2.462c1.617-1.22 1.882-3.73.59-5.594-.7-1.012-1.749-1.668-2.874-1.801-.46-.055-.828-.498-.82-.991s.388-.847.848-.795c1.624.192 3.137 1.14 4.15 2.602m-15.112 7.376c-1.125-.133-2.173-.79-2.875-1.802-1.291-1.863-1.026-4.373.592-5.594l3.26-2.462c1.617-1.221 3.984-.7 5.275 1.164s1.027 4.373-.59 5.594c-.36.272-.42.828-.132 1.243s.812.53 1.172.259c2.337-1.764 2.72-5.39.854-8.08-1.865-2.692-5.284-3.446-7.62-1.681l-3.26 2.461c-2.337 1.764-2.72 5.39-.855 8.08 1.014 1.462 2.526 2.41 4.152 2.603a.74.74 0 0 0 .533-.141.82.82 0 0 0 .314-.652c.008-.493-.36-.937-.82-.991z"/></g><defs><filter id="a" width="331" height="110" x="28" y="72" color-interpolation-filters="sRGB" filterUnits="userSpaceOnUse"><feFlood flood-opacity="0" result="BackgroundImageFix"/><feColorMatrix in="SourceAlpha" result="hardAlpha" values="0 0 0 0 0 0 0 0 0 0 0 0 0 0 0 0 0 0 127 0"/><feOffset dy="4"/><feGaussianBlur stdDeviation="12.5"/><feComposite in2="hardAlpha" operator="out"/><feColorMatrix values="0 0 0 0 0 0 0 0 0 0 0 0 0 0 0 0 0 0 0.03 0"/><feBlend in2="BackgroundImageFix" result="effect1_dropShadow_169_19"/><feBlend in="SourceGraphic" in2="effect1_dropShadow_169_19" result="shape"/></filter><filter id="b" width="331" height="110" x="0" y="0" color-interpolation-filters="sRGB" filterUnits="userSpaceOnUse"><feFlood flood-opacity="0" result="BackgroundImageFix"/><feColorMatrix in="SourceAlpha" result="hardAlpha" values="0 0 0 0 0 0 0 0 0 0 0 0 0 0 0 0 0 0 127 0"/><feOffset dy="4"/><feGaussianBlur stdDeviation="12.5"/><feComposite in2="hardAlpha" operator="out"/><feColorMatrix values="0 0 0 0 0 0 0 0 0 0 0 0 0 0 0 0 0 0 0.03 0"/><feBlend in2="BackgroundImageFix" result="effect1_dropShadow_169_19"/><feBlend in="SourceGraphic" in2="effect1_dropShadow_169_19" result="shape"/></filter></defs></svg>