<svg xmlns="http://www.w3.org/2000/svg" width="359" height="182" fill="none" xmlns:v="https://vecta.io/nano"><g filter="url(#A)"><rect x="53" y="93" width="281" height="60" rx="10" fill="#fafafa"/><rect x="53.5" y="93.5" width="280" height="59" rx="9.5" stroke="#d9d9d9" stroke-opacity=".39"/><rect x="124" y="108" width="170" height="11" rx="5.5" fill="#e9e9e9" fill-opacity=".3"/><rect x="131" y="125" width="62" height="11" rx="5.5" fill="#d9d9d9" fill-opacity=".15"/><rect x="62" y="99" width="48" height="48" rx="10" fill="#eae6ff" fill-opacity=".26"/><path d="M92.674 120.322c1.866 2.691 1.483 6.316-.854 8.08l-3.26 2.462c-2.337 1.764-5.755 1.01-7.621-1.681s-1.483-6.316.854-8.081c.36-.271.885-.156 1.172.259s.228.971-.131 1.243c-1.617 1.221-1.883 3.731-.591 5.594s3.659 2.385 5.276 1.164l3.26-2.462c1.618-1.221 1.883-3.731.591-5.594-.702-1.012-1.749-1.668-2.874-1.801-.461-.055-.828-.498-.82-.991s.388-.847.848-.795c1.625.192 3.138 1.141 4.151 2.603zm-15.112 7.376c-1.125-.133-2.173-.79-2.874-1.802-1.291-1.863-1.026-4.373.591-5.594l3.26-2.462c1.617-1.221 3.985-.699 5.276 1.164s1.026 4.373-.591 5.594c-.36.272-.419.828-.131 1.243s.813.531 1.172.259c2.337-1.765 2.72-5.39.854-8.081s-5.285-3.445-7.621-1.681l-3.26 2.462c-2.337 1.764-2.72 5.39-.854 8.081 1.013 1.461 2.526 2.41 4.151 2.602a.74.74 0 0 0 .534-.141.82.82 0 0 0 .314-.652c.008-.493-.36-.937-.82-.991v-.001z" fill="#3f3f3f" fill-opacity=".7"/></g><g filter="url(#B)"><rect x="25" y="21" width="281" height="60" rx="10" fill="#fafafa"/><rect x="25.5" y="21.5" width="280" height="59" rx="9.5" stroke="#d9d9d9" stroke-opacity=".39"/><rect x="96" y="36" width="170" height="11" rx="5.5" fill="#e9e9e9" fill-opacity=".45"/><rect x="103" y="53" width="62" height="11" rx="5.5" fill="#d9d9d9" fill-opacity=".25"/><rect x="34" y="27" width="48" height="48" rx="10" fill="#eae6ff" fill-opacity=".26"/><path d="M64.674 48.322c1.866 2.691 1.483 6.316-.854 8.081l-3.26 2.462c-2.337 1.764-5.756 1.01-7.621-1.681s-1.482-6.316.854-8.081c.36-.272.885-.157 1.172.259s.228.971-.131 1.243c-1.617 1.221-1.883 3.731-.591 5.594s3.659 2.385 5.276 1.164l3.26-2.462c1.617-1.221 1.883-3.731.591-5.594-.702-1.012-1.749-1.668-2.875-1.801-.461-.055-.828-.498-.82-.991s.388-.846.848-.794c1.625.192 3.138 1.14 4.151 2.602zm-15.112 7.376c-1.125-.133-2.173-.79-2.875-1.802-1.291-1.863-1.026-4.373.591-5.594l3.26-2.462c1.617-1.221 3.985-.699 5.276 1.164s1.026 4.373-.591 5.594c-.36.272-.419.828-.131 1.243s.813.53 1.172.259c2.337-1.764 2.72-5.39.854-8.081s-5.285-3.445-7.621-1.681l-3.26 2.461c-2.336 1.764-2.72 5.39-.854 8.081 1.013 1.461 2.526 2.41 4.151 2.602.202.023.388-.031.534-.141a.82.82 0 0 0 .314-.652c.008-.493-.36-.937-.82-.991v-.001z" fill="#3f3f3f" fill-opacity=".7"/></g><defs><filter id="A" x="28" y="72" width="331" height="110" filterUnits="userSpaceOnUse" color-interpolation-filters="sRGB"><feFlood flood-opacity="0" result="A"/><feColorMatrix in="SourceAlpha" values="0 0 0 0 0 0 0 0 0 0 0 0 0 0 0 0 0 0 127 0" result="B"/><feOffset dy="4"/><feGaussianBlur stdDeviation="12.5"/><feComposite in2="B" operator="out"/><feColorMatrix values="0 0 0 0 0 0 0 0 0 0 0 0 0 0 0 0 0 0 0.03 0"/><feBlend in2="A"/><feBlend in="SourceGraphic"/></filter><filter id="B" x="0" y="0" width="331" height="110" filterUnits="userSpaceOnUse" color-interpolation-filters="sRGB"><feFlood flood-opacity="0" result="A"/><feColorMatrix in="SourceAlpha" values="0 0 0 0 0 0 0 0 0 0 0 0 0 0 0 0 0 0 127 0" result="B"/><feOffset dy="4"/><feGaussianBlur stdDeviation="12.5"/><feComposite in2="B" operator="out"/><feColorMatrix values="0 0 0 0 0 0 0 0 0 0 0 0 0 0 0 0 0 0 0.03 0"/><feBlend in2="A"/><feBlend in="SourceGraphic"/></filter></defs></svg>