<svg xmlns="http://www.w3.org/2000/svg" width="703" height="150" fill="none"><path d="M51.036 149.598c-13.741-1.278-26.381-5.376-35.811-11.609-3.848-2.544-9.56-8.185-11.349-11.208-5.313-8.979-5.151-18.799.401-24.233 2.819-2.76 5.133-3.505 10.941-3.522 4.749-.014 4.767-.011 7.638 1.407 4.752 2.349 7.993 6.124 13.759 16.023 6.801 11.677 12.001 16.751 19.048 18.586 3.231.842 9.317.743 12.373-.201 7.519-2.322 10.676-9.941 7.767-18.744-1.519-4.595-4.637-8.081-10.091-11.281-4.189-2.458-7.906-3.941-20.745-8.276-14.72-4.97-19.93-7.217-25.725-11.098C8.411 78.187 2.85 67.991 2.069 53.954c-.975-17.527 7.479-31.701 23.677-39.698 17.561-8.669 43.617-8.507 63.405.395 17.872 8.04 27.164 21.877 23.328 34.737-1.842 6.174-6.82 9.546-14.608 9.894-6.525.292-10.788-1.215-15.069-5.325-3.074-2.952-5.177-6.279-9.891-15.646-4.208-8.364-6.677-11.927-9.667-13.955-3.838-2.603-9.2-3.193-14.157-1.558-6.312 2.082-9.586 8.568-8.52 16.879 1.149 8.961 5.071 14.489 13.922 19.626 3.576 2.075 9.04 4.265 20.058 8.037 18.589 6.364 24.483 9.441 30.792 16.077 3.222 3.389 4.905 5.96 6.555 10.016 1.986 4.879 2.472 7.924 2.467 15.437-.006 7.501-.472 10.01-2.83 15.209-8.096 17.856-32.446 28.127-60.497 25.518zm240.879.046c-22.272-2.819-40.02-16.423-45.522-34.895-1.511-5.074-1.888-7.765-1.888-13.463s.377-8.388 1.888-13.462c6.399-21.482 29.708-36.343 55.126-35.144 17.375.819 33.03 8.641 42.531 21.25 6.488 8.609 9.853 20.758 8.731 31.521-1.136 10.898-5.037 19.635-12.134 27.181-7.972 8.475-17.977 13.845-30.292 16.259-4.612.904-14.168 1.295-18.44.754zm15.83-11.397c1.704-1.148 3.413-4.487 4.068-7.949.619-3.272.622-16.291.005-20.858-3.509-25.965-9.358-42.023-16.578-45.518-3.65-1.767-7.889-.407-9.681 3.106-3.912 7.668-2.352 32.41 3.276 51.963 3.095 10.756 7.289 17.894 11.681 19.88 1.848.836 5.532.518 7.229-.624zm181.551 11.333c-3.436-.492-8.668-2.257-11.687-3.942-3.513-1.961-8.548-7.07-10.631-10.789-1.96-3.5-3.67-8.532-4.513-13.284-.538-3.035-.664-7.362-.81-27.914l-.173-24.322-3.511-.153c-3.902-.171-5.048-.663-6.293-2.704-.584-.958-.739-1.91-.74-4.542-.003-6.254.959-7.168 7.945-7.546 5.615-.304 8.228-.928 12.361-2.95 6.026-2.949 10.797-8.566 13.07-15.389 1.973-5.922 3.383-7.001 9.154-7.001 2.708 0 3.845.169 5.046.75 2.823 1.367 2.86 1.547 2.86 13.814v10.844h9.708c10.775 0 11.519.137 12.873 2.376 1.034 1.708 1.083 8.325.073 9.865-1.5 2.29-1.793 2.347-12.697 2.482l-9.989.123.112 23.01c.103 21.216.164 23.128.794 24.527 1.988 4.41 5.931 5.973 11.446 4.537 2.907-.758 4.127-1.542 7.045-4.531 3.427-3.51 6.123-4.111 7.98-1.778.74.929.789 1.328.592 4.806-.263 4.635-.961 7.312-3.062 11.756-4.592 9.709-13.234 15.979-24.557 17.816-3.859.625-8.622.679-12.396.139zm185.202.058c-11.289-2.041-17.638-9.207-17.638-19.909 0-9.84 5.364-16.696 15.169-19.387 1.8-.494 3.846-.677 7.585-.677s5.784.183 7.584.677c9.871 2.709 15.158 9.471 15.158 19.387 0 9.839-5.326 16.715-14.968 19.324-2.693.729-10.208 1.07-12.89.585zm-137.332-1.682c-1.664-.724-2.421-1.978-2.411-3.995.014-2.304.956-4.165 3.954-7.785 3.135-3.786 4.328-6.183 4.81-9.665.221-1.593.328-9.836.259-19.853l-.119-17.128-1.07-2.18c-.79-1.608-2.057-3.095-4.829-5.67-4.112-3.82-4.909-5.057-4.909-7.621 0-1.347.225-1.945 1.073-2.853.71-.761 6.989-4.103 18.597-9.9 14.585-7.284 17.793-8.752 19.131-8.752 3.59 0 4.79 2.274 4.802 9.095l.015 4.734.997-1.51c6.148-9.307 18.883-13.881 32.754-11.764 16.973 2.59 27.459 14.731 30.308 35.094.219 1.564 1.003 10.694 1.741 20.289l1.752 19.497c.225 1.129 1.187 3.518 2.137 5.309 4.416 8.328 4.261 7.947 4.261 10.437 0 2.126-.111 2.454-1.163 3.463l-1.162 1.113-23.393.099c-21.696.092-23.489.051-24.715-.569-3.294-1.664-3.06-5.475.674-10.982 2.202-3.248 3.513-6.03 3.873-8.22.321-1.957-1.413-35.995-2.282-44.797-.916-9.271-2.534-13.823-5.608-15.772-1.485-.942-2.121-1.104-4.336-1.104-4.27 0-6.662 1.711-8.222 5.881-1.467 3.922-1.578 6.295-1.467 31.473l.108 24.271 1.067 2.173c.587 1.196 2.261 3.67 3.721 5.499 3.101 3.887 3.565 4.698 3.854 6.739.312 2.196-.422 3.955-2 4.795-1.249.665-2.678.703-26.167.689-20.077-.011-25.073-.114-26.029-.53h-.006zm-411.467-.375c-1.692-.742-2.419-1.978-2.419-4.113 0-2.294.568-3.397 3.987-7.733 1.507-1.911 3.146-4.3 3.642-5.309l.904-1.835.1-45.84.101-45.84-.964-2.105c-.704-1.539-1.971-3.082-4.712-5.74-3.022-2.93-3.8-3.91-4.014-5.053-.598-3.188.971-5.958 4.335-7.653.957-.483 9.674-4.342 19.37-8.577 19.463-8.501 20.237-8.737 22.207-6.768.541.541 1.138 1.65 1.328 2.465s.347 13.812.352 28.881l.239 27.399c.126 0 .734-.424 1.35-.943 1.641-1.38 7.737-4.278 10.366-4.928 13.248-3.272 26.664-.274 35.323 7.893 4.754 4.485 7.682 9.343 9.753 16.181 1.581 5.22 2.033 8.807 3.643 28.896l1.964 20.973c.503 2.198 1.712 4.786 4.316 9.246 1.582 2.708 1.879 3.535 2.01 5.593.181 2.846-.426 4.081-2.417 4.913-1.889.789-45.841.797-47.728.008-1.689-.705-2.503-1.961-2.503-3.86 0-2.249.597-3.725 2.98-7.367 3.254-4.974 3.962-7.042 3.911-11.425-.078-6.644-1.95-38.356-2.559-43.334-1.331-10.888-3.891-14.641-9.988-14.641-4.288 0-6.844 2.105-8.429 6.941l-.894 2.729v25.977 25.977l1.236 2.28c.681 1.253 2.271 3.544 3.534 5.089 3.03 3.709 3.762 5.211 3.762 7.715 0 1.77-.148 2.172-1.162 3.144l-1.162 1.113-25.289.084c-20.721.069-25.503-.01-26.473-.435zm238.387-.163c-1.577-.84-2.311-2.6-1.999-4.795.278-1.955 1.094-3.548 3.498-6.826 2.758-3.763 3.748-5.989 4.217-9.484.257-1.911.363-9.428.288-20.289-.143-20.676.228-19.039-5.638-24.837-3.691-3.648-4.539-5-4.521-7.205.012-1.476 1.397-3.803 2.871-4.824 1.932-1.338 33.248-16.156 35.231-16.669 1.965-.509 3.357.024 4.36 1.669.696 1.142.758 1.915.759 9.575l.001 8.333 2.118-4.305c1.825-3.709 2.547-4.735 5.215-7.407 4.924-4.932 10.143-7.144 18.082-7.664 12.635-.828 20.472 7.062 20.472 20.611 0 7.187-1.585 12.279-4.92 15.805-3.385 3.579-8.246 5.019-14.635 4.334-4.874-.522-8.077-2.555-10.017-6.36-.416-.815-1.272-3.378-1.902-5.696-1.269-4.669-1.882-5.851-3.452-6.663-2.555-1.321-4.851.056-5.935 3.56-.603 1.949-.665 4.323-.665 25.66v23.513l1.079 2.197c.69 1.404 2.443 3.631 4.858 6.17 2.079 2.186 4.025 4.562 4.326 5.281.724 1.733.692 3.988-.073 5.079-1.362 1.944-1.311 1.941-27.723 1.941-23.208 0-24.647-.039-25.895-.704z" fill="#878899"/></svg>