<?xml version="1.0" encoding="UTF-8" standalone="no"?>
<svg
        width="535"
        height="56"
        version="1.1"
        id="svg1"
        xml:space="preserve"
        xmlns="http://www.w3.org/2000/svg"
        xmlns:svg="http://www.w3.org/2000/svg"><defs
     id="defs1" />
    <g
            id="layer1"
            transform="translate(-0.40669733,-357.541)"><path
       style="fill:#878899"
       d="m 21.106232,413.36301 c -4.575509,-0.72851 -7.511803,-2.17498 -10.451042,-5.14834 -2.2652726,-2.29158 -3.6067256,-4.71937 -4.4871116,-8.12088 -0.885245,-3.42028 -1.052058,-5.64721 -1.067795,-14.25496 -0.02273,-12.43416 -0.355129,-14.53778 -2.827919,-17.89682 -2.13454896,-2.89958 -2.40176596,-4.47578 -0.984515,-5.80721 l 0.678723,-0.63763 h 11.0851706 11.08517 l 0.718353,0.71835 c 0.58764,0.58764 0.718353,0.95632 0.718353,2.02615 0,1.13562 -0.177991,1.57127 -1.351965,3.309 -2.543416,3.76481 -2.875386,5.36717 -3.103664,14.98087 -0.245947,10.35781 0.345345,14.06725 2.651157,16.63187 1.344419,1.49531 2.674159,2.11593 4.998708,2.333 2.167558,0.20241 4.325671,-0.42466 5.683576,-1.65145 1.897441,-1.71422 2.294521,-3.23396 2.657147,-10.16967 0.282051,-5.3946 -0.02758,-12.9564 -0.64993,-15.87253 -0.54814,-2.5684 -1.358523,-4.30422 -3.023848,-6.47697 -1.197282,-1.5621 -1.34836,-1.90401 -1.34836,-3.05156 0,-0.98468 0.152015,-1.46907 0.638549,-2.0347 l 0.63855,-0.74236 h 8.115609 8.115608 l 0.63855,0.74236 c 0.479579,0.55754 0.638203,1.05156 0.637157,1.98437 -0.0014,1.25111 -0.136943,1.54469 -1.75166,3.7941 -1.912052,2.66362 -2.210664,5.12549 -2.213526,18.2492 -0.0024,10.95896 -0.176725,12.80872 -1.565939,16.61526 -1.87366,5.13395 -5.400848,8.30458 -10.89097,9.79002 -3.989911,1.07954 -9.204022,1.34939 -13.342136,0.69053 z m 171.846868,0.21992 c -7.11346,-1.04726 -9.59297,-1.23008 -12.12959,-0.89435 -4.23237,0.56018 -4.80523,-0.008 -5.46812,-5.42564 -0.231,-1.88784 -0.65227,-4.88899 -0.93615,-6.66921 -0.28387,-1.78022 -0.51547,-3.56616 -0.51466,-3.96875 0.003,-1.30116 0.53794,-2.71087 1.19221,-3.13957 1.16494,-0.76329 2.30499,-0.10482 5.61829,3.24504 4.42112,4.46987 8.13087,6.60449 12.5026,7.19409 3.06776,0.41373 5.08845,-0.17978 5.78006,-1.6977 1.08162,-2.3739 -0.6388,-4.34127 -5.38318,-6.15584 -9.48273,-3.62686 -10.96393,-4.33203 -13.49827,-6.42628 -2.58905,-2.13948 -4.43135,-5.04883 -5.17445,-8.17151 -0.47973,-2.01591 -0.41408,-6.61825 0.12454,-8.73125 1.51729,-5.95231 5.7189,-10.19922 11.66901,-11.79484 2.50632,-0.67211 7.71717,-0.78783 10.71563,-0.23796 3.97137,0.72827 5.6539,0.7804 7.98731,0.24747 4.04432,-0.9237 5.17616,0.0295 6.17748,5.20261 0.3487,1.80149 1.01399,5.03183 1.47842,7.17854 0.74166,3.42815 0.8059,4.03165 0.52794,4.9594 -0.57442,1.91722 -2.75038,2.38455 -4.32116,0.92804 -0.39163,-0.36314 -1.44118,-1.61807 -2.33233,-2.78873 -2.56402,-3.36824 -6.52363,-6.27013 -9.71424,-7.11931 -1.52867,-0.40685 -4.25048,-0.42453 -5.42996,-0.0353 -1.40571,0.46393 -2.31096,1.65146 -2.31096,3.03157 0,2.02787 1.42585,2.96045 8.73125,5.71069 7.9035,2.97541 11.02436,4.70863 13.91443,7.72761 3.07924,3.21659 4.15139,5.92869 4.16594,10.5381 0.014,4.43344 -0.92018,7.53434 -3.15926,10.48703 -2.7288,3.59847 -7.20596,5.92384 -12.88974,6.69475 -1.9556,0.26524 -5.87288,0.32477 -7.32304,0.11127 z m 89.11983,-0.61248 c -7.94748,-1.45663 -13.31119,-6.25296 -15.36421,-13.739 -0.44383,-1.61834 -0.55198,-2.77156 -0.54878,-5.85199 0.004,-3.4027 0.0849,-4.10457 0.71997,-6.20786 2.09016,-6.92265 6.72879,-11.53005 13.38569,-13.29555 2.63112,-0.69781 7.96517,-0.62285 10.70065,0.15037 6.02631,1.70344 10.70707,5.85945 12.95481,11.50247 1.95752,4.91442 2.02447,11.70373 0.16414,16.64414 -1.84993,4.91282 -6.46882,8.76875 -12.31023,10.27681 -2.36338,0.61014 -7.6622,0.89448 -9.70204,0.52061 z m 6.86656,-9.42059 c 2.12926,-1.4914 2.36243,-6.75423 0.60716,-13.7043 -1.33796,-5.29776 -3.57946,-8.90152 -5.53664,-8.90152 -1.72252,0 -2.42213,2.05831 -2.41993,7.11966 0.003,7.33159 1.62632,13.37727 4.11767,15.33697 0.85237,0.67047 2.3864,0.74128 3.23174,0.14919 z m 68.31986,9.31156 c -1.86248,-0.40628 -4.04437,-1.60209 -5.08429,-2.7865 -1.22892,-1.39965 -2.31951,-3.97668 -2.77962,-6.56809 -0.3596,-2.02536 -0.37368,-3.30287 -0.11012,-9.99508 0.37768,-9.59024 0.2871,-10.01815 -2.26439,-10.69739 -1.64022,-0.43665 -2.28832,-1.38589 -2.11469,-3.09732 0.21442,-2.1136 0.72787,-2.812 3.28837,-4.47291 3.38881,-2.1982 6.97612,-5.1894 8.8179,-7.35262 0.88805,-1.04304 1.98812,-2.16432 2.44462,-2.49174 1.16625,-0.83649 2.80324,-0.80571 3.84674,0.0723 1.31716,1.10831 1.52737,2.97096 0.94857,8.40508 l -0.135,1.26752 3.44277,-0.0769 c 3.39998,-0.0759 3.45133,-0.0684 4.13134,0.61033 0.97597,0.97408 1.10748,2.42102 0.42262,4.64987 -0.30533,0.99366 -0.8453,2.16384 -1.19995,2.6004 l -0.64481,0.79375 -2.76419,-0.0713 c -2.19559,-0.0566 -2.83182,0.0102 -3.09294,0.32482 -0.23954,0.28862 -0.33924,2.13897 -0.36741,6.81817 l -0.0386,6.42206 0.74037,1.50766 c 1.2563,2.5583 3.54795,3.33805 6.2298,2.11972 1.40254,-0.63716 2.01512,-0.50994 2.43588,0.50586 0.82016,1.98003 -0.66854,5.66206 -3.25917,8.06101 -3.41317,3.16062 -8.26844,4.46022 -12.89375,3.45125 z m 33.09006,0.1042 c -4.01875,-0.63077 -8.49992,-2.84394 -10.68863,-5.27893 -3.69293,-4.10845 -5.46984,-10.15772 -4.72229,-16.07643 1.1068,-8.76306 6.54355,-15.24772 14.74729,-17.58976 2.78301,-0.79451 8.14215,-0.85737 10.56836,-0.12397 4.94269,1.49408 8.50461,5.11655 9.79347,9.95993 1.20639,4.53351 -0.33715,7.49203 -4.79781,9.19597 -2.49082,0.95148 -5.96424,1.75543 -10.28733,2.38108 l -3.175,0.45949 -0.072,0.79375 c -0.14222,1.56832 1.59982,3.40757 3.98382,4.20613 1.61594,0.54129 4.89411,0.54781 6.94662,0.0138 0.86732,-0.22565 2.67055,-0.99955 4.00716,-1.71979 2.99566,-1.61421 3.66454,-1.66841 4.21881,-0.34186 0.32828,0.78568 0.35238,1.26249 0.12815,2.53546 -0.90404,5.13232 -5.37697,9.44375 -11.53303,11.11663 -2.10823,0.57291 -6.88769,0.81849 -9.11762,0.46849 z m 2.69537,-23.93241 c 2.39446,-0.85449 3.89949,-2.68359 3.90108,-4.74105 0.001,-1.55707 -0.60368,-2.66893 -1.74717,-3.21155 -1.91024,-0.90647 -3.97118,-0.0236 -5.11381,2.19079 -0.50558,0.97977 -0.79195,3.33062 -0.54117,4.44254 0.37673,1.67038 1.41786,2.0627 3.50107,1.31927 z m 83.5588,23.93241 c -4.01875,-0.63077 -8.49992,-2.84394 -10.68864,-5.27893 -3.69292,-4.10845 -5.46984,-10.15772 -4.72229,-16.07643 1.1068,-8.76306 6.54355,-15.24772 14.74729,-17.58976 2.78302,-0.79451 8.14216,-0.85737 10.56836,-0.12397 4.94269,1.49408 8.50462,5.11655 9.79347,9.95993 1.2064,4.53351 -0.33715,7.49203 -4.79781,9.19597 -2.49082,0.95148 -5.96424,1.75543 -10.28732,2.38108 l -3.175,0.45949 -0.072,0.79375 c -0.14221,1.56832 1.59983,3.40757 3.98383,4.20613 1.61594,0.54129 4.8941,0.54781 6.94662,0.0138 0.86732,-0.22565 2.67054,-0.99955 4.00716,-1.71979 2.99566,-1.61421 3.66454,-1.66841 4.21881,-0.34186 0.32828,0.78568 0.35238,1.26249 0.12815,2.53546 -0.90404,5.13232 -5.37697,9.44375 -11.53303,11.11663 -2.10824,0.57291 -6.8877,0.81849 -9.11762,0.46849 z m 2.69536,-23.93241 c 2.39446,-0.85449 3.89949,-2.68359 3.90108,-4.74105 0.001,-1.55707 -0.60367,-2.66893 -1.74716,-3.21155 -1.91025,-0.90647 -3.97118,-0.0236 -5.11382,2.19079 -0.50558,0.97977 -0.79195,3.33062 -0.54117,4.44254 0.37673,1.67038 1.41786,2.0627 3.50107,1.31927 z M 55.386925,412.2668 c -0.91517,-0.3848 -1.340069,-1.08826 -1.340069,-2.21859 0,-1.031 0.308711,-1.63189 1.699121,-3.30729 2.621041,-3.15827 2.75051,-3.73688 3.118107,-13.93502 0.336096,-9.32424 0.02194,-18.66142 -0.70833,-21.05262 -0.232731,-0.76205 -0.951809,-2.13127 -1.597951,-3.04271 -1.914833,-2.70102 -2.321978,-3.59725 -2.165199,-4.76612 0.167491,-1.24874 0.777724,-1.97949 1.876728,-2.24736 0.451127,-0.10996 7.725857,-0.1883 16.166065,-0.17409 14.685365,0.0247 15.432873,0.0496 17.368183,0.57728 6.702093,1.82752 10.003966,5.9534 10.013051,12.51189 0.0038,2.76313 -0.457619,4.41172 -1.828584,6.53286 -1.284038,1.98666 -3.4278,3.7249 -6.304213,5.11168 -1.200547,0.57881 -2.182526,1.19782 -2.182176,1.37559 3.5e-4,0.17776 0.848415,0.79945 1.884589,1.38153 2.129142,1.19607 4.680088,3.59249 6.420731,6.03178 0.64664,0.90619 2.033008,3.2535 3.080822,5.21625 2.24153,4.19883 2.5072,4.60438 4.53284,6.91956 1.33019,1.52033 1.54288,1.90943 1.54288,2.82263 0,2.65948 0.1954,2.61658 -11.706138,2.57017 -9.604464,-0.0374 -10.014235,-0.0596 -10.715624,-0.57867 -1.313994,-0.97246 -1.54273,-1.81093 -1.034802,-3.79321 0.580894,-2.26705 0.55512,-3.69458 -0.110043,-6.09491 -1.287848,-4.64735 -4.387343,-9.24899 -6.294302,-9.34477 -0.694449,-0.0349 -1.012956,0.11876 -1.455208,0.70196 -0.506641,0.66812 -0.566172,1.08542 -0.566172,3.96875 0,4.35058 0.799964,6.54479 3.714435,10.18825 1.515624,1.89472 1.527258,3.27396 0.03698,4.38356 -0.729505,0.54316 -0.99617,0.55615 -11.711491,0.57044 -8.07304,0.0108 -11.16787,-0.0707 -11.734228,-0.30882 z m 23.794809,-29.07352 c 1.693093,-0.87553 2.64226,-2.97104 2.644895,-5.83924 0.002,-2.19841 -0.594464,-4.02115 -1.762441,-5.38567 -1.578548,-1.84418 -3.95484,-2.49906 -4.633427,-1.27693 -0.388539,0.69976 -0.636709,7.64886 -0.353975,9.91178 0.318679,2.55062 2.058451,3.64834 4.104948,2.59006 z m 30.675486,29.05927 c -0.88294,-0.37124 -1.3062,-1.08554 -1.3062,-2.20434 0,-1.05412 0.28056,-1.5648 2.01466,-3.66713 2.41477,-2.92754 2.6467,-4.32436 2.89578,-17.44073 0.17875,-9.4123 -0.0763,-15.06665 -0.78439,-17.38902 -0.39732,-1.30312 -1.19922,-2.67103 -2.79871,-4.77412 -1.36452,-1.79414 -1.31758,-4.16428 0.098,-4.9485 0.85166,-0.47181 23.00616,-0.50938 24.17477,-0.041 0.92354,0.37016 1.38738,1.21339 1.38738,2.5222 0,1.16273 -0.38439,1.75379 -2.41447,3.71257 -2.1659,2.08985 -2.98559,3.70005 -3.38875,6.65685 -0.16319,1.19688 -0.2822,6.8391 -0.2822,13.37959 0,9.3188 0.0704,11.54688 0.39973,12.65595 0.77213,2.60001 2.9621,3.63044 6.37788,3.00093 3.66435,-0.67532 6.14696,-2.82047 8.54667,-7.38492 1.50163,-2.85623 2.54623,-4.00975 3.63113,-4.00975 1.60293,0 2.47584,1.34009 2.47584,3.80091 0,1.47665 -0.93622,12.50554 -1.2078,14.22805 -0.0844,0.53531 -0.44707,1.24065 -0.81627,1.5875 l -0.66439,0.62416 h -18.80165 c -13.74713,0 -18.99935,-0.0831 -19.53702,-0.3092 z m 109.23219,-0.369 c -0.5258,-0.5258 -0.73631,-1.00195 -0.73631,-1.66547 0,-1.30305 0.29452,-1.9485 1.79167,-3.92651 2.39646,-3.16616 2.28374,-2.24958 2.385,-19.3944 0.049,-8.29469 0.0136,-15.61703 -0.0786,-16.27188 -0.14501,-1.02983 -0.39667,-1.40625 -1.86352,-2.78732 -2.10618,-1.98303 -2.374,-2.84141 -1.26873,-4.06639 0.52464,-0.58148 1.51839,-1.12037 3.26748,-1.77192 1.38245,-0.51496 4.29948,-1.72548 6.4823,-2.69002 3.37051,-1.48938 4.20144,-1.7558 5.51247,-1.76748 1.39173,-0.0124 1.61032,0.0636 2.22017,0.77205 0.66392,0.77124 0.67325,0.83981 0.50398,3.70416 -0.0948,1.60511 -0.28601,4.10901 -0.42479,5.56422 -0.33356,3.4975 -0.34308,10.37539 -0.0146,10.57837 0.14111,0.0872 1.19471,-0.48393 2.34133,-1.2692 4.79183,-3.28171 8.51289,-4.2005 13.08671,-3.2313 4.43405,0.93958 6.98723,3.63301 7.97447,8.41254 0.5256,2.54461 0.52856,5.99354 0.01,11.57104 -0.84877,9.12757 -0.60832,10.6167 2.15372,13.33827 1.5776,1.55448 1.69339,1.74893 1.68555,2.83054 -0.005,0.63877 -0.16566,1.3685 -0.35784,1.62161 -0.82912,1.09198 -1.74557,1.19127 -10.67475,1.1565 -8.49501,-0.0331 -8.52974,-0.0355 -9.12812,-0.63452 -0.83921,-0.84012 -0.79288,-3.18414 0.11876,-6.00927 1.02659,-3.18133 1.39724,-6.69072 1.39724,-13.22917 0,-5.68339 -0.0156,-5.85174 -0.66146,-7.13 -0.90713,-1.7954 -1.80136,-2.395 -3.57187,-2.395 -1.62319,0 -2.5863,0.56338 -3.43958,2.01203 -0.49278,0.8366 -0.53515,1.4625 -0.61605,9.10047 -0.1042,9.8384 -0.0246,10.38136 1.81778,12.3972 0.71303,0.78017 1.42684,1.76153 1.58625,2.1808 0.39598,1.04153 0.1161,2.27705 -0.68667,3.03121 l -0.6687,0.62821 -9.70344,0.0385 -9.70344,0.0385 z m 89.68504,-0.0116 c -0.51805,-0.51597 -0.7276,-0.99228 -0.7276,-1.65385 0,-1.30305 0.29452,-1.9485 1.79167,-3.92651 2.18487,-2.88662 2.25699,-3.23874 2.37853,-11.6137 0.12882,-8.87615 0.0935,-9.06453 -2.08626,-11.12555 -2.79796,-2.64555 -2.3495,-4.1902 1.68409,-5.80061 1.2018,-0.47982 3.85197,-1.6944 5.88926,-2.69906 3.25746,-1.60638 3.84176,-1.81168 4.84512,-1.70245 1.47949,0.16108 2.29199,0.94078 2.99794,2.87692 0.86265,2.36589 0.97054,2.37998 3.25275,0.42488 2.48376,-2.12775 4.40635,-3.08903 6.58508,-3.29248 3.31295,-0.30937 6.06665,1.14152 7.48724,3.94492 0.92626,1.82788 1.34816,5.00847 0.9628,7.25819 -0.86155,5.02973 -5.35643,9.35956 -9.02147,8.69022 -1.97235,-0.3602 -2.58346,-1.13649 -3.33704,-4.23902 -0.57304,-2.35925 -1.3655,-4.03243 -2.00616,-4.23577 -0.70352,-0.22329 -1.49367,0.26746 -2.04008,1.26706 -0.40414,0.73931 -0.47764,1.77972 -0.5555,7.86351 -0.0591,4.61599 0.0137,7.47935 0.21304,8.38098 0.39858,1.80285 1.4818,3.24799 3.42234,4.56578 0.87056,0.59119 1.76839,1.33979 1.99516,1.66356 0.47032,0.67147 0.54178,2.1159 0.14167,2.86351 -0.59691,1.11534 -0.98004,1.15222 -12.29706,1.18384 l -10.84791,0.0303 z m 105.31287,0.0116 c -0.5258,-0.5258 -0.73631,-1.00195 -0.73631,-1.66547 0,-1.30305 0.29452,-1.9485 1.79167,-3.92651 2.18488,-2.88662 2.25699,-3.23874 2.37853,-11.6137 0.12882,-8.87615 0.0935,-9.06453 -2.08626,-11.12555 -2.79795,-2.64555 -2.34949,-4.1902 1.6841,-5.80061 1.2018,-0.47982 3.85196,-1.6944 5.88925,-2.69906 3.25746,-1.60638 3.84177,-1.81168 4.84512,-1.70245 1.4795,0.16108 2.292,0.94078 2.99795,2.87692 0.84142,2.30767 0.929,2.32526 3.34382,0.67146 4.80247,-3.289 8.5195,-4.20802 13.09668,-3.23812 4.43404,0.93958 6.98722,3.63301 7.97446,8.41254 0.52561,2.54461 0.52856,5.99354 0.01,11.57104 -0.84877,9.12757 -0.60832,10.6167 2.15372,13.33827 1.5776,1.55448 1.69339,1.74893 1.68555,2.83054 -0.005,0.63877 -0.16566,1.3685 -0.35784,1.62161 -0.82912,1.09198 -1.74557,1.19127 -10.67474,1.1565 -8.49502,-0.0331 -8.52975,-0.0355 -9.12813,-0.63452 -0.83921,-0.84012 -0.79288,-3.18414 0.11876,-6.00927 1.02659,-3.18133 1.39724,-6.69072 1.39724,-13.22917 0,-5.68339 -0.0156,-5.85174 -0.66146,-7.13 -0.90713,-1.7954 -1.80136,-2.395 -3.57187,-2.395 -1.62319,0 -2.5863,0.56338 -3.43958,2.01203 -0.49278,0.8366 -0.53514,1.4625 -0.61604,9.10047 -0.10421,9.8384 -0.0246,10.38136 1.81777,12.3972 0.71303,0.78017 1.42684,1.76153 1.58625,2.1808 0.39598,1.04153 0.1161,2.27705 -0.68666,3.03121 l -0.66871,0.62821 -9.70344,0.0385 -9.70344,0.0385 z m 86.24546,-0.0116 c -0.51805,-0.51597 -0.7276,-0.99228 -0.7276,-1.65385 0,-1.30305 0.29451,-1.9485 1.79167,-3.92651 2.18487,-2.88662 2.25699,-3.23874 2.37853,-11.6137 0.12882,-8.87615 0.0935,-9.06453 -2.08626,-11.12555 -2.79796,-2.64555 -2.3495,-4.1902 1.68409,-5.80061 1.2018,-0.47982 3.85197,-1.6944 5.88926,-2.69906 3.25746,-1.60638 3.84176,-1.81168 4.84512,-1.70245 1.47949,0.16108 2.29199,0.94078 2.99794,2.87692 0.86265,2.36589 0.97053,2.37998 3.25275,0.42488 2.48376,-2.12775 4.40635,-3.08903 6.58508,-3.29248 3.31295,-0.30937 6.06665,1.14152 7.48724,3.94492 0.92626,1.82788 1.34816,5.00847 0.9628,7.25819 -0.86155,5.02973 -5.35643,9.35956 -9.02147,8.69022 -1.97235,-0.3602 -2.58346,-1.13649 -3.33704,-4.23902 -0.57304,-2.35925 -1.3655,-4.03243 -2.00616,-4.23577 -0.70352,-0.22329 -1.49368,0.26746 -2.04009,1.26706 -0.40413,0.73931 -0.47763,1.77972 -0.55549,7.86351 -0.0591,4.61599 0.0137,7.47935 0.21304,8.38098 0.39858,1.80285 1.4818,3.24799 3.42234,4.56578 0.87056,0.59119 1.76839,1.33979 1.99516,1.66356 0.47031,0.67147 0.54178,2.1159 0.14167,2.86351 -0.59691,1.11534 -0.98004,1.15222 -12.29706,1.18384 l -10.84791,0.0303 z"
       id="path1" /></g></svg>
