<svg xmlns="http://www.w3.org/2000/svg" width="360" height="66" fill="none" xmlns:v="https://vecta.io/nano"><path d="M23.089 65.907C11.235 64.984 1.729 59.376.167 52.383c-.323-1.446-.155-4.32.314-5.376.594-1.337 1.324-2.12 2.532-2.715 2.126-1.047 4.913-1.087 6.987-.1 1.936.921 3.36 2.549 5.68 6.492 2.608 4.435 4.289 6.513 6.199 7.665 3.249 1.96 7.835 1.853 10.215-.238 2.347-2.061 2.138-6.993-.415-9.762-1.907-2.069-4.187-3.206-11.183-5.572-6.04-2.043-7.245-2.51-9.671-3.751-5.749-2.941-8.847-7.071-9.793-13.052-.298-1.887-.225-5.485.148-7.268C2.52 12.308 7.19 7.418 14.186 5.085c6.423-2.141 14.34-2.14 21.311 0 8.655 2.66 14.287 8.173 14.301 13.997.007 2.995-1.294 5.342-3.528 6.365-2.08.953-5.359.941-7.47-.025-2.522-1.155-3.791-2.69-6.264-7.581-2.141-4.234-2.805-5.301-4.011-6.442-1.434-1.357-2.208-1.642-4.488-1.651-1.733-.007-1.988.035-2.972.489-1.244.574-2.304 1.631-2.833 2.825-.496 1.12-.628 4.141-.252 5.745.854 3.638 3.453 6.34 8.039 8.357.9.396 3.615 1.398 6.032 2.228 7.312 2.508 9.726 3.601 12.396 5.614 3.987 3.005 5.908 7.206 5.897 12.898-.005 2.371-.265 3.925-.974 5.815-2.493 6.644-9.726 11.133-19.535 12.126-1.667.169-4.971.198-6.746.06v.002zm104.777-.128c-5.835-.845-10.781-3.277-14.607-7.184-4.411-4.505-6.425-10.77-5.479-17.049.937-6.217 4.575-11.408 10.436-14.891 7.927-4.711 18.893-4.674 26.734.09a20.32 20.32 0 0 1 4.268 3.304c4.056 3.945 6.091 8.794 6.091 14.515s-2.035 10.57-6.091 14.515c-3.465 3.37-7.372 5.368-12.602 6.442-2.284.469-6.444.592-8.75.258zm7.243-4.794c1.34-.677 1.924-1.979 2.263-5.043.455-4.12-.386-11.571-2.004-17.759-1.444-5.523-3.276-8.974-5.299-9.983-1.576-.785-3.311-.42-4.166.878-.778 1.182-1.001 2.433-1.094 6.13-.093 3.713.072 5.945.744 10.063 1.389 8.524 3.78 14.307 6.467 15.647 1.126.561 2.07.582 3.089.066zm79.871 4.765c-6.287-1.123-10.084-5.172-11.381-12.135-.265-1.423-.315-3.056-.38-12.455l-.076-10.818h-1.552c-2.521 0-3.069-.569-3.069-3.189 0-1.635.25-2.419.905-2.836.247-.158 1.167-.294 2.542-.376 3.882-.232 5.933-1.079 8.282-3.42 1.619-1.614 2.447-2.986 3.071-5.09.614-2.073 1.487-2.672 3.898-2.672 1.637 0 2.356.224 3.016.94l.431.467.051 4.9.05 4.9H225c4.653 0 5.069.075 5.627 1.021.228.386.294.913.294 2.342v1.844l-.586.586-.586.586h-4.498-4.498v9.967c0 11.378-.016 11.218 1.278 12.411.868.8 1.52.98 3.101.853 1.534-.123 2.503-.625 4.043-2.092 1.514-1.443 2.184-1.715 3.079-1.251.762.394.971 1.067.823 2.651-.528 5.653-4.254 10.486-9.409 12.203-2.748.916-5.927 1.159-8.688.666zm133.04.166c-2.309-.372-4.435-1.358-5.736-2.659-1.6-1.601-2.279-3.447-2.276-6.188.007-2.765.644-4.463 2.314-6.142 1.852-1.86 4.232-2.698 7.68-2.704 2.315-.007 3.637.281 5.482 1.184 3.533 1.728 5.186 5.571 4.265 9.919-.659 3.107-2.97 5.378-6.387 6.275-1.039.273-4.378.469-5.342.314zM55.199 64.914c-.705-.307-.918-.728-.918-1.815 0-1.079.185-1.45 1.64-3.283.63-.793 1.352-1.834 1.605-2.313l.46-.872.048-20.17-.241-20.946c-.2-.538-.803-1.304-1.965-2.5-.922-.948-1.763-1.893-1.87-2.101-.491-.955-.05-2.51.922-3.252.303-.231 4.275-2.05 8.828-4.042C70.521.64 72.124 0 72.774 0c1.044 0 1.649.508 1.851 1.557.082.424.152 6.174.156 12.778l.007 12.007 1.336-.895c4.69-3.14 12.501-3.074 17.538.149 3.491 2.234 5.851 6.078 6.798 11.073.203 1.068.644 5.474 1.036 10.332l.868 9.301c.171.763.964 2.406 2.121 4.397 1.022 1.759.922 3.59-.228 4.165-.554.277-1.43.301-10.647.302-10.709 0-10.96-.018-11.398-.836-.233-.435-.242-1.924-.016-2.52.094-.246.609-1.114 1.145-1.928 1.403-2.131 1.663-2.903 1.644-4.887-.022-2.391-.855-17.047-1.077-18.953-.406-3.485-1.161-5.371-2.446-6.106-2.319-1.326-4.724-.304-5.659 2.405l-.411 1.192v11.55 11.55l.46.872c.253.479.975 1.52 1.605 2.313 1.455 1.833 1.641 2.203 1.641 3.283 0 1.103-.215 1.512-.956 1.822-.853.357-22.121.35-22.941-.007zm105.294 0c-.866-.377-1.155-.966-1.036-2.116.088-.857.26-1.211 1.403-2.885 2.121-3.106 1.99-2.29 1.99-12.386v-8.67l-.446-.895c-.285-.57-.926-1.337-1.767-2.112-.726-.669-1.494-1.503-1.707-1.854-.75-1.236-.375-2.78.884-3.633.918-.622 14.834-7.178 15.584-7.342.768-.168 1.529.17 1.887.837.235.437.3 1.188.355 4.063l.067 3.527.425-1.009c1.467-3.48 4.103-5.829 7.645-6.812 1.692-.47 4.253-.634 5.593-.358 3.098.638 5.313 2.878 6.141 6.21.317 1.276.271 4.593-.084 6.078-.947 3.957-3.606 5.878-7.744 5.596-1.972-.135-2.955-.521-4.008-1.576-.756-.758-.937-1.082-1.357-2.426l-.822-2.627c-.36-1.145-.835-1.667-1.685-1.854-.678-.149-1.445.279-1.785.995-.57 1.203-.646 2.805-.596 12.709l.049 9.74.472.96c.281.574 1.121 1.65 2.085 2.672 1.804 1.915 2.182 2.517 2.182 3.475 0 .814-.383 1.388-1.137 1.703-.845.353-21.774.343-22.588-.011zm75.826 0c-.705-.307-.918-.728-.918-1.815 0-1.079.185-1.45 1.641-3.283.629-.793 1.352-1.834 1.604-2.313l.46-.872.049-8.692.05-8.692-.45-.919c-.317-.649-.93-1.361-2.088-2.428-.902-.83-1.75-1.719-1.884-1.975s-.244-.865-.244-1.353c0-.777.069-.952.555-1.405.313-.293 3.879-2.159 8.204-4.293 8.218-4.055 8.472-4.147 9.42-3.401.773.608.95 1.286.95 3.627v2.115l.589-.874c.913-1.358 2.699-2.886 4.291-3.672 2.236-1.105 4.007-1.466 7.183-1.466 3.313 0 4.947.357 7.583 1.658 1.581.78 2.018 1.101 3.465 2.54 2.231 2.22 3.367 4.214 4.367 7.667.627 2.162.886 4.317 1.566 13.013.694 8.881.694 8.881 2.331 11.662 1.167 1.983 1.485 3.139 1.148 4.172-.418 1.282-.114 1.249-11.461 1.25-10.709 0-10.96-.018-11.397-.836-.233-.435-.243-1.924-.016-2.52.094-.246.609-1.114 1.144-1.928 1.387-2.105 1.658-2.906 1.642-4.835-.017-2.053-.831-15.969-1.071-18.325-.55-5.385-1.702-7.296-4.398-7.303-1.823-.007-2.972.892-3.734 2.912-.386 1.023-.388 1.087-.438 12.392-.057 12.926-.138 12.114 1.415 14.159 2.227 2.93 2.34 3.131 2.34 4.152 0 1.169-.205 1.575-.956 1.888-.853.357-22.121.35-22.942-.007zm52.217 0c-.301-.131-.63-.394-.733-.585-.265-.496-.229-2.028.06-2.577.359-.682 1.963-2.169 4.407-4.087 1.396-1.095 4.018-3.547 7.447-6.965l5.292-5.274-4.917-5.689c-5.586-6.463-6.66-7.622-9.221-9.956-1.006-.917-1.956-1.934-2.111-2.261-.32-.674-.373-2.202-.095-2.722.443-.827.584-.836 12.808-.836l11.88.162c.841.32 1.148.849 1.148 1.976 0 .892-.125 1.303-.889 2.921-1.014 2.146-1.169 3.314-.587 4.424.4.763 4.605 5.839 4.837 5.838.276 0 4.786-5.075 5.213-5.864.71-1.315.445-2.392-1.121-4.562-1.17-1.621-1.289-1.886-1.289-2.87 0-.729.08-.936.54-1.396l.54-.54 6.537-.049c5.497-.041 6.635-.008 7.155.209 1.154.483 1.39 1.993.566 3.62-.189.372-1.48 1.846-2.869 3.276-2.279 2.345-10.95 12.393-11.154 12.926-.142.369 9.043 11.119 11.787 13.797 2.789 2.721 3.398 3.499 3.674 4.698.158.683.144.947-.08 1.483-.503 1.205-.079 1.169-13.14 1.117l-11.644-.047-.503-.563c-.416-.466-.503-.714-.503-1.443 0-.868.02-.9 1.383-2.298.858-.879 1.447-1.64 1.551-2.004.232-.808-.163-2.092-.99-3.218-.888-1.209-4.414-5.367-4.561-5.378-.209-.016-5.121 5.833-5.458 6.5-.808 1.595-.649 2.387.842 4.213 1.141 1.397 1.376 2.146.976 3.104-.486 1.163-.559 1.173-8.848 1.165-5.886-.007-7.494-.055-7.93-.245z" fill="#6139ff"/></svg>